<?xml version="1.0" encoding="UTF-8"?>
<svg version="1.1" xmlns="http://www.w3.org/2000/svg" width="1080" height="1080">
<path d="M0 0 C3.32983398 1.48120117 3.32983398 1.48120117 6.74609375 3.54296875 C7.36090103 3.90844315 7.97570831 4.27391754 8.60914612 4.65046692 C10.56084609 5.81532665 12.4989632 7.00089222 14.4375 8.1875 C15.73419391 8.96558117 17.0317143 9.74228672 18.33007812 10.51757812 C23.28888471 13.48768799 28.22209462 16.49766102 33.11328125 19.578125 C38.0146522 22.66203799 43.01172271 25.58571432 47.99850464 28.52868652 C51.0069705 30.30442205 54.01328187 32.08379664 57.01953125 33.86328125 C57.91884117 34.39554825 57.91884117 34.39554825 58.83631897 34.93856812 C66.46073827 39.45368358 74.05523299 44.01828488 81.64794922 48.58642578 C83.99417207 49.99649744 86.34243156 51.4031117 88.69140625 52.80859375 C107.17453808 63.87125564 125.58011377 75.06271174 143.95166016 86.30957031 C149.84616614 89.9144748 155.76545221 93.4770465 161.6953125 97.0234375 C164.42512796 98.65616401 167.15070991 100.29558779 169.875 101.9375 C174.39976018 104.65386941 178.94964969 107.32682928 183.5 110 C200.94297033 120.25509997 200.94297033 120.25509997 206.5625 124.0625 C210.03691533 126.40487013 213.57551953 128.47480612 217.25390625 130.4765625 C228.59584939 136.76867889 239.644358 143.58859973 250.69921875 150.3671875 C262.81340601 157.79209805 275.05467402 165.00622935 287.28295898 172.2409668 C293.05669402 175.65807529 298.82137051 179.08904684 304.5715332 182.5456543 C308.93071322 185.15625401 313.31041466 187.73207808 317.6875 190.3125 C332.50210056 199.05998137 347.22806102 207.94766703 361.92822266 216.88574219 C372.79213248 223.74972208 372.79213248 223.74972208 384 230 C384.08556478 277.42130521 384.16517136 324.84261614 384.2117157 372.26397705 C384.21240598 372.96547412 384.21309627 373.66697119 384.21380747 374.38972574 C384.22877091 389.63398597 384.24262197 404.87824701 384.25532665 420.12250929 C384.2615635 427.59794908 384.26804625 435.07338865 384.2746582 442.54882812 C384.2756389 443.66469106 384.2756389 443.66469106 384.2766394 444.80309669 C384.29795818 468.92906995 384.33552367 493.05498478 384.3814861 517.18092262 C384.42862041 541.96691719 384.45942055 566.7528794 384.46957495 591.53891803 C384.47101579 595.03722931 384.47264398 598.53554048 384.47438622 602.03385162 C384.47472333 602.72239087 384.47506045 603.41093012 384.47540778 604.12033419 C384.48132365 615.21807934 384.50453348 626.31572464 384.53416017 637.41342903 C384.56355493 648.56181968 384.57444465 659.71011291 384.56750689 670.85855052 C384.5642923 676.90255651 384.56935083 682.94626868 384.59602737 688.99022293 C384.62024499 694.51718567 384.62166251 700.04365521 384.60449447 705.57064 C384.60237066 707.57609135 384.60881012 709.5815727 384.62441591 711.58696446 C384.6443255 714.3020419 384.63376674 717.01531168 384.61523914 719.73035812 C384.62837421 720.5188141 384.64150928 721.30727007 384.65504238 722.11961865 C384.59520729 725.96875188 384.37434948 727.61983011 381.62557954 730.41133809 C380.75913829 730.93559652 379.89269704 731.45985495 379 732 C378.13391113 732.5571167 377.26782227 733.1142334 376.37548828 733.68823242 C375.44978027 734.23842041 374.52407227 734.7886084 373.5703125 735.35546875 C372.01896606 736.28141846 372.01896606 736.28141846 370.4362793 737.22607422 C369.34355713 737.87334473 368.25083496 738.52061523 367.125 739.1875 C365.42500854 740.20094482 365.42500854 740.20094482 363.69067383 741.23486328 C360.46211467 743.15939028 357.23116249 745.07984852 354 747 C351.56056512 748.45514937 349.12369899 749.9144284 346.6875 751.375 C346.13304199 751.70709473 345.57858398 752.03918945 345.00732422 752.38134766 C340.93407292 754.82574227 336.87405001 757.29150617 332.81640625 759.76171875 C318.69601498 768.35749008 304.52899687 776.86373791 290.296875 785.2734375 C282.23162163 790.04060456 274.20004076 794.86327842 266.17236328 799.69335938 C262.84577808 801.69424542 259.51657134 803.69075429 256.1875 805.6875 C254.96614485 806.42057127 253.74479066 807.15364416 252.5234375 807.88671875 C250.25900226 809.2455037 247.99320152 810.60191652 245.7265625 811.95703125 C237.08920149 817.12561227 228.47981834 822.33998385 219.875 827.5625 C219.28602936 827.91981201 218.69705872 828.27712402 218.09024048 828.64526367 C216.34893519 829.70183843 214.60794782 830.75893388 212.8671875 831.81640625 C212.29871597 832.16173904 211.73024445 832.50707184 211.14454651 832.86286926 C207.68083158 834.9697817 204.22709905 837.09219977 200.77874756 839.22415161 C195.77833169 842.31483862 190.76026331 845.32712175 185.625 848.1875 C181.48767629 850.51400163 177.55334147 852.94155377 173.7578125 855.79296875 C170.60759353 857.95611911 167.19811938 859.66437801 163.83203125 861.46484375 C157.84862214 864.70826414 152.07071027 868.2451946 146.4375 872.0625 C142.8295111 874.49947496 139.13624516 876.64482251 135.3125 878.72265625 C131.13769829 881.02867003 127.07900337 883.5297961 123 886 C121.4379627 886.93827073 119.87545646 887.87576119 118.3125 888.8125 C117.4875 889.3075 116.6625 889.8025 115.8125 890.3125 C94.23046875 903.26171875 94.23046875 903.26171875 92.36303711 904.38208008 C91.12024643 905.12781963 89.87757076 905.87375087 88.63500977 906.61987305 C85.46248038 908.52455081 82.28787864 910.42561889 79.109375 912.3203125 C73.4005216 915.72751033 67.71670156 919.15199705 62.125 922.75 C58.26476364 925.23239389 54.34436383 927.49877392 50.3125 929.6875 C47.64510994 931.20142409 45.07800993 932.83861582 42.5 934.5 C38.55107044 937.04328566 34.55814153 939.38650505 30.43359375 941.62890625 C26.33261852 943.93940754 22.35983677 946.45834059 18.359375 948.9375 C-1.08612116 960.8761302 -1.08612116 960.8761302 -7 960 C-10.51430685 958.29840874 -13.72222188 956.11351782 -17 954 C-19.90790776 952.19398361 -22.82885984 950.40951213 -25.75 948.625 C-26.52480713 948.1494165 -27.29961426 947.67383301 -28.09790039 947.18383789 C-32.91186967 944.23848509 -37.76812318 941.39017936 -42.6875 938.625 C-46.18339122 936.65203151 -49.58115166 934.69543496 -52.8125 932.3125 C-55.98123594 930.01361314 -59.18893888 928.17275909 -62.62109375 926.30859375 C-68.75318516 922.93544002 -74.67754834 919.22126947 -80.5625 915.4375 C-84.51208393 912.90799119 -88.5070112 910.55269134 -92.62841797 908.31665039 C-95.00551011 906.99694091 -97.3362833 905.61955451 -99.6640625 904.21484375 C-100.53973877 903.68737549 -101.41541504 903.15990723 -102.31762695 902.61645508 C-103.20281006 902.0830249 -104.08799316 901.54959473 -105 901 C-106.63115883 900.02285036 -108.26266173 899.0462748 -109.89453125 898.0703125 C-118.24994667 893.06778714 -126.58736786 888.04233903 -134.87109375 882.921875 C-140.25151326 879.61704803 -145.6735866 876.3818368 -151.09277344 873.14111328 C-154.23038075 871.26385053 -157.36505475 869.38170363 -160.5 867.5 C-161.74998563 866.74997606 -162.99998564 865.99997607 -164.25 865.25 C-166.75 863.75 -169.25 862.25 -171.75 860.75 C-172.67655396 860.1940918 -172.67655396 860.1940918 -173.62182617 859.62695312 C-174.88246295 858.87053828 -176.14304162 858.11402658 -177.40356445 857.35742188 C-180.36537678 855.57980089 -183.32812994 853.80382267 -186.29296875 852.03125 C-196.19807479 846.10414397 -206.06355878 840.11212075 -215.92651367 834.11523438 C-221.89015807 830.49020932 -227.85901605 826.87564265 -233.86035156 823.31323242 C-236.0999875 821.93863159 -238.27039037 820.4858874 -240.4375 819 C-243.52567203 816.9144116 -246.64794754 815.06258203 -249.9375 813.3125 C-254.90998947 810.65681717 -259.70520552 807.77181134 -264.5 804.8125 C-270.6355021 801.02955986 -276.81110933 797.33818254 -283.0625 793.75 C-293.7809658 787.59065627 -304.36514903 781.21196624 -314.95361328 774.83251953 C-317.85010908 773.09016519 -320.75027153 771.35414058 -323.65234375 769.62109375 C-331.2621187 765.075067 -338.84573252 760.51434696 -346.296875 755.7109375 C-351.56684216 752.37532245 -356.93990665 749.20762272 -362.29736328 746.01513672 C-365.30694819 744.22077852 -368.30972494 742.41509784 -371.3125 740.609375 C-373.49664572 739.30142727 -375.68475972 738.00081072 -377.875 736.703125 C-379.25 735.88541667 -380.625 735.06770833 -382 734.25 C-382.99 733.66605469 -382.99 733.66605469 -384 733.0703125 C-386.58143375 731.53220822 -388.86615698 730.13384302 -391 728 C-391.21976552 725.3080844 -391.31310068 722.71615644 -391.32151508 720.02114677 C-391.33711027 718.76366041 -391.33711027 718.76366041 -391.35302052 717.48077029 C-391.38566352 714.64091024 -391.40390772 711.80113744 -391.42219543 708.96115112 C-391.44238182 706.91666964 -391.46337208 704.87219596 -391.48510188 702.8277303 C-391.54224062 697.18521227 -391.58630293 691.54265578 -391.62792552 685.90000463 C-391.66510048 681.06587856 -391.7095707 676.23182972 -391.75385908 671.39776443 C-392.16479597 626.29921929 -392.38280875 581.19871439 -392.55467443 536.09869116 C-392.58034379 529.38561522 -392.60700342 522.67254324 -392.6340332 515.95947266 C-392.63848029 514.84681204 -392.63848029 514.84681204 -392.64301721 513.71167343 C-392.73971082 489.68200649 -392.92922152 465.65420858 -393.16909111 441.62557787 C-393.4152778 416.91908114 -393.57296809 392.21360117 -393.61788875 367.50587783 C-393.62426783 364.01284934 -393.63162499 360.51982353 -393.63956261 357.02679825 C-393.64109003 356.33936108 -393.64261745 355.65192391 -393.64419115 354.94365531 C-393.67126309 343.89732508 -393.79054954 332.85384422 -393.94438733 321.80863297 C-394.09713266 310.69352026 -394.14813892 299.58070369 -394.10356358 288.46443962 C-394.0823174 282.44406924 -394.10448245 276.43226864 -394.24546432 270.41332626 C-395.05245458 234.15943493 -395.05245458 234.15943493 -388.32658172 226.53102732 C-382.27047384 220.83696264 -374.88706417 217.75690443 -367.10772169 215.10837579 C-363.06959204 213.66816795 -359.83045691 211.71468534 -356.25 209.375 C-355.13882813 208.70726562 -354.02765625 208.03953125 -352.8828125 207.3515625 C-349.68389702 205.41899312 -346.4940951 203.4716522 -343.3046875 201.5234375 C-342.28600586 200.90162598 -341.26732422 200.27981445 -340.21777344 199.63916016 C-338.2121284 198.41405112 -336.20750668 197.18726463 -334.20410156 195.95849609 C-329.16462028 192.87881309 -324.09443166 189.89557238 -318.91650391 187.0546875 C-312.94051892 183.76599258 -307.17290372 180.12511662 -301.4375 176.4375 C-297.44424239 173.88002041 -293.40021826 171.50775667 -289.23828125 169.23828125 C-283.16029223 165.87576376 -277.27842212 162.19296039 -271.4375 158.4375 C-267.44424239 155.88002041 -263.40021826 153.50775667 -259.23828125 151.23828125 C-253.16029223 147.87576376 -247.27842212 144.19296039 -241.4375 140.4375 C-237.44569854 137.880953 -233.40407527 135.50826874 -229.2421875 133.2421875 C-225.09339057 130.94372509 -221.05651991 128.45641344 -217 126 C-215.33379222 124.99923558 -213.6671269 123.99923255 -212 123 C-210.33331811 122.00002537 -208.66665307 121.00002266 -207 120 C-205.83102173 119.29883057 -205.83102173 119.29883057 -204.63842773 118.58349609 C-200.62348009 116.17510113 -196.60922243 113.76558625 -192.59765625 111.3515625 C-185.13021375 106.86073355 -177.65588992 102.38222366 -170.15625 97.9453125 C-169.56903671 97.59783966 -168.98182343 97.25036682 -168.3768158 96.8923645 C-165.49519048 95.18766606 -162.61260129 93.48464048 -159.72875977 91.78369141 C-153.07178796 87.84950442 -146.46473238 83.84491649 -139.88647461 79.78125 C-136.52164245 77.70480448 -133.14118297 75.65810259 -129.75 73.625 C-129.14140137 73.25979248 -128.53280273 72.89458496 -127.90576172 72.51831055 C-124.47698369 70.46546964 -121.03717861 68.4328247 -117.5859375 66.41796875 C-110.96411011 62.55126098 -104.41287443 58.69072614 -98.0859375 54.3515625 C-94.82260975 52.23712167 -91.3847738 50.46413789 -87.95703125 48.6328125 C-83.58172205 46.21685577 -79.35717922 43.57169249 -75.11328125 40.93359375 C-70.77255178 38.23765763 -66.38650286 35.6205082 -62 33 C-59.60392476 31.56290128 -57.20809075 30.12540573 -54.8125 28.6875 C-53.51694152 27.91013219 -52.22136845 27.13278869 -50.92578125 26.35546875 C-50.27561035 25.96536621 -49.62543945 25.57526367 -48.95556641 25.17333984 C-38.51489258 18.90893555 -38.51489258 18.90893555 -28.07421875 12.64453125 C-27.42904297 12.2570874 -26.78386719 11.86964355 -26.11914062 11.47045898 C-24.84430595 10.70623491 -23.56828571 9.9439846 -22.29101562 9.18383789 C-19.52126387 7.53278094 -16.78561909 5.86052327 -14.08203125 4.1015625 C-13.22996094 3.55242188 -12.37789062 3.00328125 -11.5 2.4375 C-10.43265625 1.72400391 -10.43265625 1.72400391 -9.34375 0.99609375 C-6.0414459 -0.40738549 -3.57551578 -0.26868973 0 0 Z " fill="#080B36" transform="translate(539,58)"/>
<path d="M0 0 C0.73293228 58.91368522 1.29661577 117.82721389 1.63409054 176.74451442 C1.67400284 183.70492844 1.7154929 190.66533265 1.7578125 197.62573242 C1.76199679 198.31834985 1.76618108 199.01096728 1.77049217 199.72457312 C1.90668785 222.14649573 2.14691201 244.56582581 2.44151106 266.98617981 C2.75246907 290.6947746 2.94398421 314.40136571 3.01083183 338.11199445 C3.05468029 352.3075644 3.19295741 366.49569034 3.45332694 380.68896713 C3.62290164 390.43094078 3.67351911 400.16908552 3.63204408 409.91242675 C3.6115939 415.53189065 3.6421531 421.13839372 3.8145752 426.7555294 C4.74806434 458.73735477 4.74806434 458.73735477 -1.4198885 466.87281749 C-8.69561846 474.38151747 -18.36104871 478.43269365 -27.90956497 482.24596727 C-34.46307839 484.93203949 -40.29383504 488.82971749 -46.25 492.625 C-48.54201228 494.03381947 -50.84314828 495.42678358 -53.14453125 496.8203125 C-54.28620452 497.51556564 -55.42767132 498.21115806 -56.56884766 498.90722656 C-57.1341217 499.25192993 -57.69939575 499.5966333 -58.28179932 499.95178223 C-60.01019611 501.00622031 -61.73829539 502.06114435 -63.46630859 503.11621094 C-66.95537616 505.246326 -70.44574911 507.37428632 -73.9375 509.5 C-74.50876617 509.84781525 -75.08003235 510.19563049 -75.66860962 510.5539856 C-86.03423995 516.85891011 -96.48169321 523.01955075 -106.97045898 529.1171875 C-113.61976943 532.98962675 -120.20795771 536.94387837 -126.7512207 540.99291992 C-131.69335266 544.04614505 -136.66201012 547.05538997 -141.62963867 550.06689453 C-144.68852775 551.92131127 -147.74656159 553.77713758 -150.8046875 555.6328125 C-151.41846252 556.00521057 -152.03223755 556.37760864 -152.66461182 556.7612915 C-158.27977899 560.1686613 -163.89037162 563.58352008 -169.5 567 C-172.32139361 568.71738082 -175.14287378 570.43461937 -177.96435547 572.15185547 C-180.09646235 573.44991314 -182.22827216 574.74845883 -184.35986328 576.04736328 C-197.06934244 583.79184466 -209.79298175 591.50463392 -222.62646484 599.04272461 C-230.80217661 603.8560499 -238.9017301 608.79193235 -247.00158691 613.73123169 C-254.36831845 618.22098156 -261.76397194 622.6484353 -269.25 626.9375 C-274.63344407 630.02200065 -279.94868232 633.17579856 -285.1875 636.5 C-293.10839702 641.52194803 -301.17852573 646.2884258 -309.25 651.0625 C-323.35353267 659.40545819 -337.38223745 667.86467108 -351.36987305 676.40039062 C-352.23781494 676.92826172 -353.10575684 677.45613281 -354 678 C-354.8969458 678.56396484 -355.7938916 679.12792969 -356.71801758 679.70898438 C-359 681 -359 681 -361 681 C-361.36614255 621.80486083 -361.64814615 562.60974873 -361.81704527 503.41371534 C-361.83700247 496.42668714 -361.85774736 489.43966138 -361.87890625 482.45263672 C-361.88099839 481.75734761 -361.88309054 481.06205851 -361.88524608 480.34570004 C-361.95341553 457.8134108 -362.07358599 435.28176397 -362.22075553 412.74986385 C-362.37601136 388.93665912 -362.47194544 365.12395155 -362.50541592 341.31024206 C-362.52738146 327.04492044 -362.59677561 312.78144314 -362.72666347 298.51668923 C-362.8111769 288.73755119 -362.83681675 278.95936787 -362.81602204 269.17989106 C-362.80576219 263.53499425 -362.82158679 257.89332145 -362.9072876 252.24899673 C-362.98521112 247.07914658 -362.98907438 241.91468301 -362.93438232 236.74458377 C-362.92762543 234.8762073 -362.94790434 233.0074937 -362.99813092 231.13978024 C-363.34164537 217.57566586 -363.34164537 217.57566586 -359.45981479 213.30589101 C-355.66365273 210.22102704 -351.50237642 208.03862397 -347.07806289 205.99473183 C-343.73309439 204.39355477 -340.60923971 202.44296763 -337.4453125 200.515625 C-336.22288929 199.79815927 -334.99911314 199.08298898 -333.7734375 198.37109375 C-333.17241211 198.02159668 -332.57138672 197.67209961 -331.95214844 197.31201172 C-331.04770996 196.78631592 -331.04770996 196.78631592 -330.125 196.25 C-327.66870991 194.81866919 -325.21317928 193.386039 -322.7578125 191.953125 C-322.16672699 191.60839645 -321.57564148 191.26366791 -320.96664429 190.90849304 C-316.8423891 188.5003308 -312.74135532 186.05626453 -308.65087891 183.59130859 C-305.44419905 181.66635563 -302.22655509 179.76014717 -299.0078125 177.85546875 C-285.17210402 169.66437343 -271.36533166 161.43184826 -257.63522339 153.06478882 C-248.0813338 147.24407158 -238.47350951 141.5218062 -228.83203125 135.84765625 C-222.85069564 132.32750656 -216.90085491 128.75603068 -210.95507812 125.17626953 C-207.18065775 122.90539573 -203.40246173 120.64080964 -199.625 118.375 C-197.90623543 117.34377428 -196.18748584 116.3125236 -194.46875 115.28125 C-183.21875 108.53125 -183.21875 108.53125 -180.20922852 106.72558594 C-178.1315345 105.47893663 -176.05389895 104.23218988 -173.97631836 102.98535156 C-168.84405995 99.90545346 -163.71123356 96.82651424 -158.57637024 93.7509613 C-155.44642009 91.87618596 -152.31690172 90.00069059 -149.1875 88.125 C-148.55790375 87.74769745 -147.9283075 87.3703949 -147.27963257 86.98165894 C-140.47078971 82.90013573 -133.66914302 78.80750952 -126.890625 74.67578125 C-126.31365372 74.32413406 -125.73668243 73.97248688 -125.14222717 73.61018372 C-123.98348934 72.90386703 -122.82476229 72.19753267 -121.66604614 71.49118042 C-121.09562592 71.14346588 -120.52520569 70.79575134 -119.9375 70.4375 C-119.0853743 69.91798264 -119.0853743 69.91798264 -118.21603394 69.38796997 C-108.49715624 63.46753597 -98.69603474 57.69597136 -88.86535645 51.96353149 C-81.65155578 47.75516556 -74.48531912 43.49775241 -67.43994141 39.01245117 C-59.58185094 34.04508124 -51.54489721 29.36925381 -43.53979492 24.64419556 C-36.06951468 20.23356766 -28.62014986 15.79765121 -21.25390625 11.21484375 C-20.6490741 10.83906189 -20.04424194 10.46328003 -19.42108154 10.07611084 C-16.56883057 8.30181161 -13.72281856 6.51880375 -10.88330078 4.72412109 C-9.88411621 4.09973145 -8.88493164 3.4753418 -7.85546875 2.83203125 C-6.55065552 2.00795776 -6.55065552 2.00795776 -5.21948242 1.16723633 C-3 0 -3 0 0 0 Z " fill="#080B35" transform="translate(905,311)"/>
<path d="M0 0 C1.97961182 1.0453431 3.92813077 2.15021507 5.85546875 3.2890625 C6.42554657 3.62419357 6.99562439 3.95932465 7.58297729 4.30461121 C9.45412217 5.40645855 11.32084159 6.51557179 13.1875 7.625 C14.49451221 8.39706393 15.80172501 9.16878839 17.10913086 9.94018555 C30.3005413 17.7334134 43.43290099 25.62577709 56.55224609 33.53955078 C58.95073344 34.98597418 61.35003922 36.43102278 63.75 37.875 C64.52520996 38.34156006 65.30041992 38.80812012 66.09912109 39.28881836 C71.17023658 42.33057284 76.26429603 45.33121129 81.37109375 48.3125 C82.01529266 48.68883575 82.65949158 49.06517151 83.32321167 49.45291138 C86.51817364 51.31881452 89.71499351 53.18140303 92.91503906 55.03857422 C98.64160808 58.37191836 104.2598325 61.78662123 109.73706055 65.51660156 C113.34054372 67.87875107 117.08195356 69.99543106 120.81347656 72.14746094 C125.79146814 75.04150017 130.69913901 78.04957763 135.61352539 81.04995728 C145.76375879 87.24472983 155.95136941 93.36947857 166.19946289 99.40136719 C174.5944892 104.34315857 182.94764225 109.35292951 191.29541016 114.37402344 C196.36141674 117.41966379 201.43102302 120.45930698 206.5 123.5 C208.62241012 124.77341369 210.7448061 126.04685094 212.8671875 127.3203125 C214.41164551 128.2469873 214.41164551 128.2469873 215.98730469 129.19238281 C224.5078125 134.3046875 224.5078125 134.3046875 227.10327148 135.86206055 C228.77714737 136.86632126 230.45113728 137.87039195 232.12524414 138.87426758 C235.60308102 140.95998637 239.0802213 143.04672208 242.55078125 145.14453125 C248.53205688 148.75261332 254.53522933 152.31959709 260.56640625 155.84375 C261.16231567 156.19196808 261.7582251 156.54018616 262.37219238 156.8989563 C262.981073 157.25472748 263.58995361 157.61049866 264.21728516 157.97705078 C276.42360582 165.10931868 288.56334649 172.3329203 300.62109375 179.71484375 C305.93603167 182.9680435 311.27730957 186.17600753 316.625 189.375 C330.54721783 197.71349112 344.2928897 206.31309981 358 215 C354.97662088 218.29587837 351.87569456 220.43035324 348.00390625 222.65234375 C347.42343536 222.9883812 346.84296448 223.32441864 346.24490356 223.67063904 C345.00097738 224.39025731 343.75550566 225.10720945 342.50863647 225.82171631 C339.19299112 227.72268424 335.88971362 229.64490693 332.5859375 231.56640625 C331.92669785 231.94933838 331.26745819 232.33227051 330.58824158 232.72680664 C325.2277968 235.84825539 319.94188056 239.07803936 314.6875 242.375 C306.01656943 247.80316455 297.2421005 253.04288466 288.4375 258.25 C278.04485652 264.39646903 267.68489812 270.5906633 257.375 276.875 C248.33567063 282.38345445 239.26300656 287.82801871 230.140625 293.19775391 C213.67893248 302.89152795 197.33764001 312.78507165 181.01873779 322.7166748 C172.5023013 327.89781004 163.94635877 333.00671974 155.35107422 338.05615234 C148.00290029 342.38292143 140.71728162 346.8095937 133.4375 351.25 C123.8478279 357.09864617 114.20377657 362.84277847 104.5 368.5 C94.42407513 374.37486912 84.41846516 380.35208438 74.46240234 386.42773438 C65.01688176 392.19038071 55.52217478 397.86499684 46 403.5 C35.36100548 409.79740775 24.75346672 416.14323445 14.1875 422.5625 C13.58478271 422.92843262 12.98206543 423.29436523 12.36108398 423.67138672 C5.62133238 427.74222007 5.62133238 427.74222007 -1 432 C-5.68922197 431.77244677 -9.12910421 429.25377462 -12.9375 426.75 C-19.29765155 422.67242959 -25.73110182 418.75600743 -32.25 414.9375 C-40.67165328 409.99190566 -49.03604301 404.95863833 -57.375 399.875 C-67.54173364 393.67870985 -77.75390195 387.56410213 -88 381.5 C-99.33928856 374.78798073 -110.63115922 368.00379576 -121.88549805 361.15039062 C-132.68575606 354.57463638 -143.52604069 348.06678101 -154.375 341.57177734 C-157.85557931 339.48770279 -161.33414341 337.40028117 -164.8125 335.3125 C-165.68334229 334.79018799 -165.68334229 334.79018799 -166.57177734 334.25732422 C-169.79145123 332.3262328 -173.00968649 330.39278026 -176.2265625 328.45703125 C-184.08105303 323.73400975 -191.94488992 319.02768158 -199.83203125 314.359375 C-225.18888719 299.34764709 -225.18888719 299.34764709 -234.7409668 293.29467773 C-240.69706504 289.52904194 -246.77610739 285.98096476 -252.859375 282.42578125 C-256.69288968 280.18482723 -260.50713337 277.91336932 -264.3125 275.625 C-264.91433105 275.2630957 -265.51616211 274.90119141 -266.13623047 274.52832031 C-267.40504796 273.76497746 -268.67376216 273.0014629 -269.94238281 272.23779297 C-273.85519082 269.88397989 -277.77165365 267.53625367 -281.6875 265.1875 C-286.6590054 262.20553611 -291.63024685 259.22315845 -296.59765625 256.234375 C-304.35807128 251.56777219 -312.12880719 246.91924576 -319.91796875 242.30078125 C-320.9668074 241.67876076 -320.9668074 241.67876076 -322.03683472 241.04417419 C-325.52196687 238.97760779 -329.00791076 236.91242945 -332.49511719 234.84936523 C-339.80024755 230.52300734 -347.06650344 226.14301404 -354.28222656 221.66894531 C-357.48262168 219.70362901 -360.7208689 217.83021271 -364 216 C-361.35593516 212.98872015 -358.11581946 211.13866778 -354.69140625 209.1484375 C-354.0612561 208.7770314 -353.43110596 208.40562531 -352.78186035 208.02296448 C-351.42146847 207.22163079 -350.05990291 206.42228696 -348.69729614 205.62472534 C-345.06350316 203.49747624 -341.43838583 201.35553337 -337.8125 199.21484375 C-337.07363052 198.77908524 -336.33476105 198.34332672 -335.57350159 197.8943634 C-328.36509364 193.6376098 -321.20918208 189.29683391 -314.0625 184.9375 C-306.26557319 180.18522788 -298.4523827 175.47053415 -290.56420898 170.87133789 C-283.86902229 166.95313666 -277.24992889 162.91031393 -270.625 158.875 C-258.59262956 151.54836659 -246.49682928 144.33456201 -234.3664093 137.1711731 C-227.09204385 132.87490271 -219.8270134 128.56290184 -212.5625 124.25 C-211.53922104 123.64254944 -211.53922104 123.64254944 -210.49526978 123.02282715 C-198.66619759 115.99970686 -186.86100443 108.93762078 -175.07568359 101.84130859 C-168.24889333 97.73150498 -161.40822102 93.64779191 -154.54077148 89.60620117 C-142.4141612 82.46696457 -130.38021277 75.18233465 -118.359375 67.8671875 C-111.9493164 63.96646409 -105.52209336 60.09605369 -99.08203125 56.24511719 C-84.70028943 47.64440386 -70.3447854 39.00319831 -56.0307312 30.29046631 C-47.29639739 24.97631785 -38.52745421 19.72484621 -29.70288086 14.56152344 C-25.3530688 12.01032834 -21.04216291 9.41626028 -16.78125 6.71875 C-15.53915771 5.93733643 -15.53915771 5.93733643 -14.27197266 5.14013672 C-12.71788196 4.15778931 -11.17019936 3.16520076 -9.63037109 2.16064453 C-8.94539551 1.72864746 -8.26041992 1.29665039 -7.5546875 0.8515625 C-6.96155762 0.46822754 -6.36842773 0.08489258 -5.75732422 -0.31005859 C-3.36288983 -1.25013523 -2.39867109 -0.91893059 0 0 Z " fill="#080B36" transform="translate(538,79)"/>
<path d="M0 0 C3.32983398 1.48120117 3.32983398 1.48120117 6.74609375 3.54296875 C7.36090103 3.90844315 7.97570831 4.27391754 8.60914612 4.65046692 C10.56084609 5.81532665 12.4989632 7.00089222 14.4375 8.1875 C15.73419391 8.96558117 17.0317143 9.74228672 18.33007812 10.51757812 C23.28888471 13.48768799 28.22209462 16.49766102 33.11328125 19.578125 C38.0146522 22.66203799 43.01172271 25.58571432 47.99850464 28.52868652 C51.0069705 30.30442205 54.01328187 32.08379664 57.01953125 33.86328125 C57.91884117 34.39554825 57.91884117 34.39554825 58.83631897 34.93856812 C66.46073827 39.45368358 74.05523299 44.01828488 81.64794922 48.58642578 C83.99417207 49.99649744 86.34243156 51.4031117 88.69140625 52.80859375 C107.17453808 63.87125564 125.58011377 75.06271174 143.95166016 86.30957031 C149.84616614 89.9144748 155.76545221 93.4770465 161.6953125 97.0234375 C164.42512796 98.65616401 167.15070991 100.29558779 169.875 101.9375 C174.39976018 104.65386941 178.94964969 107.32682928 183.5 110 C200.94297033 120.25509997 200.94297033 120.25509997 206.5625 124.0625 C210.03691533 126.40487013 213.57551953 128.47480612 217.25390625 130.4765625 C228.59584939 136.76867889 239.644358 143.58859973 250.69921875 150.3671875 C262.81340601 157.79209805 275.05467402 165.00622935 287.28295898 172.2409668 C293.05669402 175.65807529 298.82137051 179.08904684 304.5715332 182.5456543 C308.93071322 185.15625401 313.31041466 187.73207808 317.6875 190.3125 C332.50210056 199.05998137 347.22806102 207.94766703 361.92822266 216.88574219 C372.79213248 223.74972208 372.79213248 223.74972208 384 230 C384.08556478 277.42130521 384.16517136 324.84261614 384.2117157 372.26397705 C384.21240598 372.96547412 384.21309627 373.66697119 384.21380747 374.38972574 C384.22877091 389.63398597 384.24262197 404.87824701 384.25532665 420.12250929 C384.2615635 427.59794908 384.26804625 435.07338865 384.2746582 442.54882812 C384.2756389 443.66469106 384.2756389 443.66469106 384.2766394 444.80309669 C384.29795818 468.92906995 384.33552367 493.05498478 384.3814861 517.18092262 C384.42862041 541.96691719 384.45942055 566.7528794 384.46957495 591.53891803 C384.47101579 595.03722931 384.47264398 598.53554048 384.47438622 602.03385162 C384.47472333 602.72239087 384.47506045 603.41093012 384.47540778 604.12033419 C384.48132365 615.21807934 384.50453348 626.31572464 384.53416017 637.41342903 C384.56355493 648.56181968 384.57444465 659.71011291 384.56750689 670.85855052 C384.5642923 676.90255651 384.56935083 682.94626868 384.59602737 688.99022293 C384.62024499 694.51718567 384.62166251 700.04365521 384.60449447 705.57064 C384.60237066 707.57609135 384.60881012 709.5815727 384.62441591 711.58696446 C384.6443255 714.3020419 384.63376674 717.01531168 384.61523914 719.73035812 C384.62837421 720.5188141 384.64150928 721.30727007 384.65504238 722.11961865 C384.59520729 725.96875188 384.37434948 727.61983011 381.62557954 730.41133809 C380.75913829 730.93559652 379.89269704 731.45985495 379 732 C378.13391113 732.5571167 377.26782227 733.1142334 376.37548828 733.68823242 C375.44978027 734.23842041 374.52407227 734.7886084 373.5703125 735.35546875 C372.01896606 736.28141846 372.01896606 736.28141846 370.4362793 737.22607422 C369.34355713 737.87334473 368.25083496 738.52061523 367.125 739.1875 C365.42500854 740.20094482 365.42500854 740.20094482 363.69067383 741.23486328 C360.46211467 743.15939028 357.23116249 745.07984852 354 747 C351.56056512 748.45514937 349.12369899 749.9144284 346.6875 751.375 C346.13304199 751.70709473 345.57858398 752.03918945 345.00732422 752.38134766 C340.93407292 754.82574227 336.87405001 757.29150617 332.81640625 759.76171875 C318.69601498 768.35749008 304.52899687 776.86373791 290.296875 785.2734375 C282.23162163 790.04060456 274.20004076 794.86327842 266.17236328 799.69335938 C262.84577808 801.69424542 259.51657134 803.69075429 256.1875 805.6875 C254.96614485 806.42057127 253.74479066 807.15364416 252.5234375 807.88671875 C250.25900226 809.2455037 247.99320152 810.60191652 245.7265625 811.95703125 C237.08920149 817.12561227 228.47981834 822.33998385 219.875 827.5625 C219.28602936 827.91981201 218.69705872 828.27712402 218.09024048 828.64526367 C216.34893519 829.70183843 214.60794782 830.75893388 212.8671875 831.81640625 C212.29871597 832.16173904 211.73024445 832.50707184 211.14454651 832.86286926 C207.68083158 834.9697817 204.22709905 837.09219977 200.77874756 839.22415161 C195.77833169 842.31483862 190.76026331 845.32712175 185.625 848.1875 C181.48767629 850.51400163 177.55334147 852.94155377 173.7578125 855.79296875 C170.60759353 857.95611911 167.19811938 859.66437801 163.83203125 861.46484375 C157.84862214 864.70826414 152.07071027 868.2451946 146.4375 872.0625 C142.8295111 874.49947496 139.13624516 876.64482251 135.3125 878.72265625 C131.13769829 881.02867003 127.07900337 883.5297961 123 886 C121.4379627 886.93827073 119.87545646 887.87576119 118.3125 888.8125 C117.4875 889.3075 116.6625 889.8025 115.8125 890.3125 C94.23046875 903.26171875 94.23046875 903.26171875 92.36303711 904.38208008 C91.12024643 905.12781963 89.87757076 905.87375087 88.63500977 906.61987305 C85.46248038 908.52455081 82.28787864 910.42561889 79.109375 912.3203125 C73.4005216 915.72751033 67.71670156 919.15199705 62.125 922.75 C58.26476364 925.23239389 54.34436383 927.49877392 50.3125 929.6875 C47.64510994 931.20142409 45.07800993 932.83861582 42.5 934.5 C38.55107044 937.04328566 34.55814153 939.38650505 30.43359375 941.62890625 C26.33261852 943.93940754 22.35983677 946.45834059 18.359375 948.9375 C-1.08612116 960.8761302 -1.08612116 960.8761302 -7 960 C-10.51430685 958.29840874 -13.72222188 956.11351782 -17 954 C-19.90790776 952.19398361 -22.82885984 950.40951213 -25.75 948.625 C-26.52480713 948.1494165 -27.29961426 947.67383301 -28.09790039 947.18383789 C-32.91186967 944.23848509 -37.76812318 941.39017936 -42.6875 938.625 C-46.18339122 936.65203151 -49.58115166 934.69543496 -52.8125 932.3125 C-55.98123594 930.01361314 -59.18893888 928.17275909 -62.62109375 926.30859375 C-68.75318516 922.93544002 -74.67754834 919.22126947 -80.5625 915.4375 C-84.51208393 912.90799119 -88.5070112 910.55269134 -92.62841797 908.31665039 C-95.00551011 906.99694091 -97.3362833 905.61955451 -99.6640625 904.21484375 C-100.53973877 903.68737549 -101.41541504 903.15990723 -102.31762695 902.61645508 C-103.20281006 902.0830249 -104.08799316 901.54959473 -105 901 C-106.63115883 900.02285036 -108.26266173 899.0462748 -109.89453125 898.0703125 C-118.24994667 893.06778714 -126.58736786 888.04233903 -134.87109375 882.921875 C-140.25151326 879.61704803 -145.6735866 876.3818368 -151.09277344 873.14111328 C-154.23038075 871.26385053 -157.36505475 869.38170363 -160.5 867.5 C-161.74998563 866.74997606 -162.99998564 865.99997607 -164.25 865.25 C-166.75 863.75 -169.25 862.25 -171.75 860.75 C-172.67655396 860.1940918 -172.67655396 860.1940918 -173.62182617 859.62695312 C-174.88246295 858.87053828 -176.14304162 858.11402658 -177.40356445 857.35742188 C-180.36537678 855.57980089 -183.32812994 853.80382267 -186.29296875 852.03125 C-196.19807479 846.10414397 -206.06355878 840.11212075 -215.92651367 834.11523438 C-221.89015807 830.49020932 -227.85901605 826.87564265 -233.86035156 823.31323242 C-236.0999875 821.93863159 -238.27039037 820.4858874 -240.4375 819 C-243.52567203 816.9144116 -246.64794754 815.06258203 -249.9375 813.3125 C-254.90998947 810.65681717 -259.70520552 807.77181134 -264.5 804.8125 C-270.6355021 801.02955986 -276.81110933 797.33818254 -283.0625 793.75 C-293.7809658 787.59065627 -304.36514903 781.21196624 -314.95361328 774.83251953 C-317.85010908 773.09016519 -320.75027153 771.35414058 -323.65234375 769.62109375 C-331.2621187 765.075067 -338.84573252 760.51434696 -346.296875 755.7109375 C-351.56684216 752.37532245 -356.93990665 749.20762272 -362.29736328 746.01513672 C-365.30694819 744.22077852 -368.30972494 742.41509784 -371.3125 740.609375 C-373.49664572 739.30142727 -375.68475972 738.00081072 -377.875 736.703125 C-379.25 735.88541667 -380.625 735.06770833 -382 734.25 C-382.99 733.66605469 -382.99 733.66605469 -384 733.0703125 C-386.58143375 731.53220822 -388.86615698 730.13384302 -391 728 C-391.21976552 725.3080844 -391.31310068 722.71615644 -391.32151508 720.02114677 C-391.33711027 718.76366041 -391.33711027 718.76366041 -391.35302052 717.48077029 C-391.38566352 714.64091024 -391.40390772 711.80113744 -391.42219543 708.96115112 C-391.44238182 706.91666964 -391.46337208 704.87219596 -391.48510188 702.8277303 C-391.54224062 697.18521227 -391.58630293 691.54265578 -391.62792552 685.90000463 C-391.66510048 681.06587856 -391.7095707 676.23182972 -391.75385908 671.39776443 C-392.16479597 626.29921929 -392.38280875 581.19871439 -392.55467443 536.09869116 C-392.58034379 529.38561522 -392.60700342 522.67254324 -392.6340332 515.95947266 C-392.63848029 514.84681204 -392.63848029 514.84681204 -392.64301721 513.71167343 C-392.73971082 489.68200649 -392.92922152 465.65420858 -393.16909111 441.62557787 C-393.4152778 416.91908114 -393.57296809 392.21360117 -393.61788875 367.50587783 C-393.62426783 364.01284934 -393.63162499 360.51982353 -393.63956261 357.02679825 C-393.64109003 356.33936108 -393.64261745 355.65192391 -393.64419115 354.94365531 C-393.67126309 343.89732508 -393.79054954 332.85384422 -393.94438733 321.80863297 C-394.09713266 310.69352026 -394.14813892 299.58070369 -394.10356358 288.46443962 C-394.0823174 282.44406924 -394.10448245 276.43226864 -394.24546432 270.41332626 C-395.05245458 234.15943493 -395.05245458 234.15943493 -388.32658172 226.53102732 C-382.27047384 220.83696264 -374.88706417 217.75690443 -367.10772169 215.10837579 C-363.06959204 213.66816795 -359.83045691 211.71468534 -356.25 209.375 C-355.13882813 208.70726562 -354.02765625 208.03953125 -352.8828125 207.3515625 C-349.68389702 205.41899312 -346.4940951 203.4716522 -343.3046875 201.5234375 C-342.28600586 200.90162598 -341.26732422 200.27981445 -340.21777344 199.63916016 C-338.2121284 198.41405112 -336.20750668 197.18726463 -334.20410156 195.95849609 C-329.16462028 192.87881309 -324.09443166 189.89557238 -318.91650391 187.0546875 C-312.94051892 183.76599258 -307.17290372 180.12511662 -301.4375 176.4375 C-297.44424239 173.88002041 -293.40021826 171.50775667 -289.23828125 169.23828125 C-283.16029223 165.87576376 -277.27842212 162.19296039 -271.4375 158.4375 C-267.44424239 155.88002041 -263.40021826 153.50775667 -259.23828125 151.23828125 C-253.16029223 147.87576376 -247.27842212 144.19296039 -241.4375 140.4375 C-237.44569854 137.880953 -233.40407527 135.50826874 -229.2421875 133.2421875 C-225.09339057 130.94372509 -221.05651991 128.45641344 -217 126 C-215.33379222 124.99923558 -213.6671269 123.99923255 -212 123 C-210.33331811 122.00002537 -208.66665307 121.00002266 -207 120 C-205.83102173 119.29883057 -205.83102173 119.29883057 -204.63842773 118.58349609 C-200.62348009 116.17510113 -196.60922243 113.76558625 -192.59765625 111.3515625 C-185.13021375 106.86073355 -177.65588992 102.38222366 -170.15625 97.9453125 C-169.56903671 97.59783966 -168.98182343 97.25036682 -168.3768158 96.8923645 C-165.49519048 95.18766606 -162.61260129 93.48464048 -159.72875977 91.78369141 C-153.07178796 87.84950442 -146.46473238 83.84491649 -139.88647461 79.78125 C-136.52164245 77.70480448 -133.14118297 75.65810259 -129.75 73.625 C-129.14140137 73.25979248 -128.53280273 72.89458496 -127.90576172 72.51831055 C-124.47698369 70.46546964 -121.03717861 68.4328247 -117.5859375 66.41796875 C-110.96411011 62.55126098 -104.41287443 58.69072614 -98.0859375 54.3515625 C-94.82260975 52.23712167 -91.3847738 50.46413789 -87.95703125 48.6328125 C-83.58172205 46.21685577 -79.35717922 43.57169249 -75.11328125 40.93359375 C-70.77255178 38.23765763 -66.38650286 35.6205082 -62 33 C-59.60392476 31.56290128 -57.20809075 30.12540573 -54.8125 28.6875 C-53.51694152 27.91013219 -52.22136845 27.13278869 -50.92578125 26.35546875 C-50.27561035 25.96536621 -49.62543945 25.57526367 -48.95556641 25.17333984 C-38.51489258 18.90893555 -38.51489258 18.90893555 -28.07421875 12.64453125 C-27.42904297 12.2570874 -26.78386719 11.86964355 -26.11914062 11.47045898 C-24.84430595 10.70623491 -23.56828571 9.9439846 -22.29101562 9.18383789 C-19.52126387 7.53278094 -16.78561909 5.86052327 -14.08203125 4.1015625 C-13.22996094 3.55242188 -12.37789062 3.00328125 -11.5 2.4375 C-10.43265625 1.72400391 -10.43265625 1.72400391 -9.34375 0.99609375 C-6.0414459 -0.40738549 -3.57551578 -0.26868973 0 0 Z M-8.68359375 22.02734375 C-9.4317334 22.48101318 -10.17987305 22.93468262 -10.95068359 23.40209961 C-11.77133301 23.90878174 -12.59198242 24.41546387 -13.4375 24.9375 C-14.74195068 25.73136108 -14.74195068 25.73136108 -16.07275391 26.54125977 C-18.00218036 27.71613846 -19.92981853 28.8939574 -21.85595703 30.07421875 C-26.92282006 33.17776088 -32.00139768 36.26201802 -37.07971191 39.34677124 C-38.28242876 40.07748285 -39.48498259 40.80846284 -40.68737793 41.53970337 C-49.373416 46.82196269 -58.09541104 52.03895971 -66.85644531 57.19604492 C-83.24486669 66.84657268 -99.51591772 76.69276491 -115.76602173 86.57385254 C-127.27763124 93.57310247 -138.82432339 100.51263824 -150.38378906 107.43261719 C-152.62973076 108.77817017 -154.87413065 110.12620837 -157.1171875 111.4765625 C-162.33644693 114.6178999 -167.56250594 117.74613991 -172.8125 120.8359375 C-182.57694331 126.58324266 -192.3025005 132.38651201 -201.97305298 138.2902832 C-211.57904264 144.15414871 -221.22989451 149.91144004 -231 155.5 C-240.20667876 160.7670865 -249.31914394 166.16678001 -258.375 171.6875 C-258.97026489 172.05039124 -259.56552979 172.41328247 -260.17883301 172.78717041 C-263.07459383 174.55322725 -265.96955012 176.32059619 -268.86425781 178.08837891 C-273.14946553 180.70074082 -277.4461013 183.29356973 -281.75 185.875 C-282.90411377 186.56722656 -282.90411377 186.56722656 -284.08154297 187.2734375 C-289.16608987 190.31702586 -294.26115536 193.34267877 -299.359375 196.36328125 C-321.3517232 209.39464044 -343.2387534 222.58541128 -365 236 C-361.37359619 239.05650415 -357.67368282 241.43603538 -353.53125 243.73828125 C-347.01450742 247.39817303 -340.61201837 251.22206192 -334.23696899 255.12457275 C-331.19626045 256.98531521 -328.15110141 258.83873751 -325.10546875 260.69140625 C-324.19374153 261.24601532 -324.19374153 261.24601532 -323.26359558 261.81182861 C-317.80580432 265.12696896 -312.31629395 268.38681793 -306.8125 271.625 C-295.81417796 278.09591252 -284.87273575 284.65964294 -273.93652344 291.23486328 C-269.62596129 293.82593115 -265.31295874 296.4129242 -261 299 C-259.80189697 299.71905518 -259.80189697 299.71905518 -258.57958984 300.45263672 C-254.11696017 303.13092471 -249.65296523 305.80691081 -245.1875 308.48046875 C-234.63766213 314.79976354 -224.10412808 321.14419551 -213.59912109 327.53765869 C-202.82330974 334.09583986 -192.00334546 340.57235164 -181.1328125 346.97265625 C-169.44477234 353.85688118 -157.83890242 360.87716644 -146.25244141 367.93066406 C-145.08497667 368.64130189 -143.91749602 369.35191357 -142.75 370.0625 C-142.16530945 370.4184021 -141.5806189 370.7743042 -140.97821045 371.14099121 C-130.68336454 377.40393789 -120.33215754 383.56836401 -109.96228027 389.70608521 C-100.60535634 395.24576426 -91.28408878 400.8391405 -82 406.5 C-70.41918483 413.56061802 -58.77367058 420.507553 -47.09570312 427.40625 C-37.28693848 433.2050037 -27.54059687 439.09313532 -17.93359375 445.22265625 C-16.8053418 445.93518555 -16.8053418 445.93518555 -15.65429688 446.66210938 C-14.13540173 447.62162287 -12.6226383 448.59089224 -11.11523438 449.56835938 C-10.37466797 450.03177734 -9.63410156 450.49519531 -8.87109375 450.97265625 C-8.22068115 451.38781494 -7.57026855 451.80297363 -6.90014648 452.23071289 C-4.47816176 453.21126973 -3.41794556 452.90631405 -1 452 C1.37797337 450.71589438 3.68690238 449.39269839 6 448 C6.72928711 447.56631104 7.45857422 447.13262207 8.20996094 446.68579102 C15.85427308 442.12393807 23.44640935 437.47498673 31.04760742 432.84179688 C40.14415435 427.29956224 49.29747444 421.86421066 58.5 416.5 C68.64332675 410.58736943 78.71009129 404.56334133 88.72967529 398.44354248 C97.80416739 392.90401758 106.94199421 387.48257647 116.125 382.125 C126.18188543 376.25735443 136.16630256 370.2887256 146.078125 364.17919922 C149.1643033 362.28562183 152.26842849 360.42237443 155.375 358.5625 C155.97981201 358.20027344 156.58462402 357.83804687 157.20776367 357.46484375 C159.13819176 356.30936449 161.06905693 355.15461843 163 354 C166.06324819 352.16791376 169.12572892 350.33455375 172.1875 348.5 C173.01757568 348.00274414 173.84765137 347.50548828 174.70288086 346.99316406 C179.64101952 344.03018902 184.56755063 341.04900352 189.484375 338.05078125 C201.43214457 330.76575173 213.41108086 323.54885361 225.5 316.5 C235.5734616 310.62631504 245.57750154 304.65168858 255.5305481 298.57629395 C265.1210342 292.72341278 274.7667427 286.96915958 284.4375 281.25 C293.98188178 275.60450232 303.47918327 269.90262813 312.87451172 264.01098633 C318.28786781 260.63313361 323.75498148 257.35694912 329.25390625 254.12109375 C329.978591 253.6940213 330.70327576 253.26694885 331.44992065 252.82693481 C335.07519054 250.69154721 338.70436812 248.56327728 342.33984375 246.4453125 C343.67591189 245.66037857 345.01185509 244.87523193 346.34765625 244.08984375 C346.96024796 243.73619247 347.57283966 243.3825412 348.20399475 243.01817322 C351.5958826 241.01498196 354.34989923 238.91801047 357 236 C356.030625 235.39414062 355.06125 234.78828125 354.0625 234.1640625 C353.4236084 233.76469482 352.7847168 233.36532715 352.12646484 232.95385742 C350.68430047 232.05262887 349.24191027 231.15176161 347.79931641 230.2512207 C344.24383503 228.03106107 340.69085648 225.80735929 337.1484375 223.56640625 C328.8453652 218.32457859 320.44078607 213.27931053 311.97363281 208.30712891 C304.31206555 203.79902209 296.71373802 199.19150694 289.125 194.5625 C278.25137826 187.93216124 267.29317528 181.46231793 256.27734375 175.0703125 C250.1355682 171.50496437 244.04484309 167.85908882 237.96679688 164.18652344 C233.98268475 161.78299998 229.99047463 159.39293917 226 157 C224.2812215 155.96879749 222.56247105 154.93754825 220.84375 153.90625 C220.01875 153.41125 219.19375 152.91625 218.34375 152.40625 C204.28125 143.96875 190.21875 135.53125 176.15625 127.09375 C174.96140991 126.37687012 174.96140991 126.37687012 173.74243164 125.64550781 C172.1139563 124.66838988 170.48553892 123.69117534 168.85717773 122.71386719 C164.17829534 119.90590247 159.49805611 117.1002235 154.81640625 114.296875 C144.58257113 108.16654069 134.36036058 102.02005905 124.18969727 95.78540039 C117.75751415 91.84414435 111.29256374 87.95928912 104.81787109 84.08837891 C102.98763007 82.99259399 101.15951634 81.89334291 99.33203125 80.79296875 C92.84591158 76.88912691 86.3426547 73.01727174 79.8125 69.1875 C73.01360077 65.19909968 66.24834891 61.15745523 59.49511719 57.09228516 C54.12569277 53.86437056 48.7434779 50.65889307 43.3515625 47.46875 C41.28672879 46.24656562 39.22191315 45.02435072 37.15710449 43.80212402 C35.76411103 42.97772583 34.37096395 42.15358715 32.97766113 41.32971191 C23.26097704 35.58135523 13.60999653 29.74936043 4.10375977 23.65649414 C2.94444946 22.92354126 2.94444946 22.92354126 1.76171875 22.17578125 C1.10131592 21.75208252 0.44091309 21.32838379 -0.23950195 20.8918457 C-3.64017576 19.16910802 -5.68118747 20.18788628 -8.68359375 22.02734375 Z M-374 252 C-374.50359355 311.14381546 -374.89127498 370.28757966 -375.12343725 429.43308867 C-375.15087792 436.41625234 -375.17940221 443.3994114 -375.20849609 450.38256836 C-375.21137279 451.07746519 -375.21424949 451.77236201 -375.21721336 452.48831632 C-375.31091355 474.99994382 -375.47612153 497.51035404 -375.67853886 520.02124449 C-375.8921172 543.8166557 -376.02394637 567.61112527 -376.06994689 591.40749246 C-376.10013047 605.65970574 -376.19543181 619.90842413 -376.37416227 634.15956137 C-376.49049255 643.93329699 -376.52559674 653.70522721 -376.4970303 663.4796048 C-376.48293924 669.11992838 -376.50445193 674.75415031 -376.62252045 680.39338684 C-378.13644492 701.5829016 -378.13644492 701.5829016 -371.85191393 721.03624177 C-366.76425273 725.67499277 -361.21492622 728.12727641 -354.68389821 730.10751975 C-350.72327101 731.4245524 -347.36949218 733.50623516 -343.875 735.75 C-343.12911621 736.18707275 -342.38323242 736.62414551 -341.61474609 737.07446289 C-333.65120989 741.77001387 -325.76421677 746.59283465 -317.86669922 751.39819336 C-306.90025134 758.06972299 -295.897113 764.67908844 -284.88378906 771.27294922 C-280.37911208 773.9707214 -275.87711335 776.67295256 -271.375 779.375 C-269.74089953 780.35549228 -268.10678545 781.33596186 -266.47265625 782.31640625 C-263.75130208 783.94921875 -261.02994792 785.58203125 -258.30859375 787.21484375 C-257.4412561 787.73522217 -257.4412561 787.73522217 -256.55639648 788.26611328 C-255.38527794 788.9688172 -254.21421756 789.67161806 -253.04321289 790.37451172 C-249.19688206 792.68301866 -245.34889118 794.98873278 -241.5 797.29296875 C-231.03547031 803.5610584 -220.58604384 809.8521349 -210.16757202 816.1965332 C-199.48576523 822.70084554 -188.76205665 829.12933312 -178 835.5 C-166.65859511 842.2136157 -155.36390761 848.99824144 -144.10791016 855.85400391 C-136.3819401 860.55864489 -128.63619073 865.22870804 -120.875 869.875 C-113.96249469 874.01479527 -107.05817744 878.16610168 -100.1875 882.375 C-92.65262446 886.9903399 -85.11237079 891.59672576 -77.5625 896.1875 C-76.96826233 896.54886047 -76.37402466 896.91022095 -75.76177979 897.28253174 C-65.78968531 903.34253568 -55.76297103 909.30519092 -45.70727539 915.2253418 C-37.49903905 920.07127059 -29.38435377 925.05393405 -21.35571289 930.19238281 C-20.55770264 930.69608398 -19.75969238 931.19978516 -18.9375 931.71875 C-18.24527344 932.16154297 -17.55304688 932.60433594 -16.83984375 933.06054688 C-14.89899602 934.2273806 -14.89899602 934.2273806 -12 934 C-11.26707079 874.95892997 -10.70338555 815.91796869 -10.36590946 756.87330331 C-10.32599715 749.89786803 -10.28450709 742.92244254 -10.2421875 735.94702148 C-10.23800321 735.25290921 -10.23381892 734.55879694 -10.22950783 733.84365096 C-10.09331151 711.37322956 -9.85308682 688.90539505 -9.55848894 666.43653884 C-9.24753295 642.67671546 -9.05601621 618.91889142 -8.98916817 595.15703851 C-8.94531935 580.93076616 -8.80703988 566.71192162 -8.54667306 552.48793743 C-8.37710086 542.72494074 -8.32648038 532.96576475 -8.36795592 523.20140346 C-8.38840639 517.56979899 -8.35784217 511.95112742 -8.1854248 506.32184601 C-6.68807778 485.29484751 -6.68807778 485.29484751 -13.43908024 466.11425379 C-20.77772237 458.58342772 -30.49881713 454.44288893 -40.12199783 450.63414538 C-45.67494845 448.39231283 -50.58621148 445.17232738 -55.5625 441.875 C-57.06120572 440.93076224 -58.56208597 439.98995446 -60.06640625 439.0546875 C-60.82743652 438.58047363 -61.5884668 438.10625977 -62.37255859 437.61767578 C-70.87902902 432.38037109 -79.48212752 427.29946003 -88.078125 422.2109375 C-88.75020493 421.81305023 -89.42228485 421.41516296 -90.11473083 421.00521851 C-92.84998421 419.38626449 -95.58532943 417.76747513 -98.32226562 416.15136719 C-105.83991042 411.71105858 -113.30270641 407.22018266 -120.64794922 402.49755859 C-123.86168776 400.45136052 -127.13897642 398.53025297 -130.4375 396.625 C-137.597215 392.45300124 -144.68368271 388.16524956 -151.75799561 383.8505249 C-163.34720456 376.78253821 -175.01352795 369.86577397 -186.75390625 363.05078125 C-195.57651281 357.92863332 -204.2988482 352.64583583 -213.01171875 347.33984375 C-215.32017104 345.93466263 -217.62872965 344.52965828 -219.9375 343.125 C-220.53123413 342.76368988 -221.12496826 342.40237976 -221.73669434 342.03012085 C-232.12141046 335.71397597 -242.5611918 329.49420167 -253.02124023 323.30380249 C-262.69750849 317.57573356 -272.33475995 311.78797425 -281.9375 305.9375 C-289.80581099 301.14398583 -297.68702657 296.38070934 -305.64233398 291.73291016 C-315.0380487 286.23741194 -324.35143249 280.60322836 -333.68017578 274.99511719 C-339.26403298 271.63938244 -344.8509185 268.28869667 -350.4375 264.9375 C-352.43621197 263.73830467 -354.43491052 262.53908698 -356.43359375 261.33984375 C-357.36026855 260.78538574 -358.28694336 260.23092773 -359.24169922 259.65966797 C-361.12384265 258.52718336 -363.00026342 257.3851467 -364.87158203 256.23486328 C-365.77118652 255.68427246 -366.67079102 255.13368164 -367.59765625 254.56640625 C-368.39824463 254.07213135 -369.19883301 253.57785645 -370.02368164 253.06860352 C-371.91876221 251.8414572 -371.91876221 251.8414572 -374 252 Z M357.70703125 256.05078125 C356.07326538 257.0547998 356.07326538 257.0547998 354.40649414 258.07910156 C353.8225589 258.44201294 353.23862366 258.80492432 352.63699341 259.17883301 C349.49028454 261.13407163 346.33023997 263.06757449 343.171875 265.00390625 C342.50841568 265.41144135 341.84495636 265.81897644 341.16139221 266.23886108 C334.35490927 270.41258002 327.48673991 274.47984586 320.61190796 278.53964233 C310.37276191 284.58676871 300.1842777 290.6946868 290.10131836 297 C280.05610845 303.25517936 269.85451402 309.24966357 259.66931152 315.27293396 C248.10035183 322.11481236 236.57656897 329.02792866 225.09887695 336.02197266 C213.43352138 343.12987102 201.72401125 350.15534182 189.96289062 357.10400391 C177.69597432 364.35312624 165.48471858 371.69422485 153.27426147 379.03790283 C144.46668243 384.334012 135.63744965 389.59215617 126.793396 394.8270874 C115.61471566 401.44611991 104.4691045 408.11514444 93.375 414.875 C81.6440655 422.02189036 69.84283984 429.04050945 58 436 C45.88858828 443.12690712 33.80254261 450.29539993 21.74707031 457.51651001 C20.37772278 458.33662111 19.00809523 459.15626487 17.63818359 459.97543335 C15.72011203 461.12272582 13.80323958 462.27199442 11.88671875 463.421875 C10.77514404 464.08799805 9.66356934 464.75412109 8.51831055 465.44042969 C6.14870157 466.77500937 6.14870157 466.77500937 5 468 C4.9011888 470.47604133 4.86821934 472.92418852 4.87695217 475.40074253 C4.87579833 476.18867851 4.87464448 476.97661449 4.87345567 477.78842732 C4.87078168 480.46277764 4.87531755 483.13706929 4.87974548 485.81141663 C4.87930994 487.7344368 4.87843535 489.65745691 4.87715632 491.5804767 C4.87490802 496.89135825 4.87893719 502.20221983 4.88393438 507.51309884 C4.88823392 513.23024442 4.88679281 518.94738878 4.8860321 524.66453552 C4.88550655 534.57870312 4.8886566 544.49286416 4.89426994 554.40703011 C4.90238074 568.74143036 4.90499973 583.07582743 4.90625793 597.41022974 C4.90844912 620.6641947 4.91510244 643.91815609 4.92456055 667.17211914 C4.9337402 689.76749656 4.94082616 712.36287304 4.94506836 734.95825195 C4.94519989 735.65435048 4.94533141 736.35044901 4.94546692 737.06764143 C4.94678541 744.05794617 4.94806123 751.04825092 4.94930578 758.03855567 C4.95975253 816.69237275 4.97740398 875.34618636 5 934 C8.84138787 932.50511191 12.28931211 930.77355001 15.84765625 928.68359375 C16.68834656 928.19122223 16.68834656 928.19122223 17.54602051 927.68890381 C19.38708753 926.60886412 21.22490092 925.52342809 23.0625 924.4375 C24.35730515 923.67547705 25.65214622 922.91351513 26.94702148 922.15161133 C38.19190822 915.52307109 49.35197755 908.7570634 60.49609375 901.9609375 C68.57580817 897.03396353 76.690978 892.16680306 84.81274414 887.30957031 C86.28154734 886.43015739 87.74947247 885.54927639 89.21655273 884.66699219 C94.30675205 881.60599752 99.4095702 878.56690335 104.51953125 875.5390625 C105.19070984 875.14126083 105.86188843 874.74345917 106.55340576 874.33360291 C109.33414145 872.6856401 112.11494579 871.03779652 114.89672852 869.39160156 C123.05295574 864.56411357 131.17496807 859.69057739 139.23657227 854.70654297 C142.49619397 852.69357753 145.77422347 850.71577406 149.0625 848.75 C149.67569092 848.38269775 150.28888184 848.01539551 150.9206543 847.63696289 C153.6781557 845.98533267 156.43697884 844.33593596 159.19726562 842.68896484 C169.30325582 836.65859708 179.36229147 830.55916398 189.375 824.375 C200.09295164 817.75768465 210.87286647 811.2504785 221.68286133 804.78491211 C227.83623145 801.10346299 233.98301204 797.4123781 240.10546875 793.6796875 C240.68268677 793.32779358 241.25990479 792.97589966 241.85461426 792.61334229 C243.01408271 791.90633051 244.17352698 791.19927906 245.33294678 790.4921875 C256.20009156 783.86536526 267.13922344 777.37515261 278.13464355 770.96353149 C285.34988886 766.75432279 292.51660273 762.4947139 299.56445312 758.01025391 C308.50293717 752.36208071 317.64419727 747.02674796 326.7718823 741.6907621 C328.09576235 740.90147354 329.40820976 740.09251365 330.70531726 739.25995916 C335.30029648 736.36676419 339.83063141 734.24800118 344.90893936 732.31608677 C353.16879827 728.92401281 363.02705093 724.5699924 366.91567647 715.97642431 C370.82199264 703.56888057 369.59351634 689.5347257 369.2498374 676.71439421 C369.12822043 671.02074647 369.16988503 665.32791359 369.19110107 659.6333313 C369.20574197 649.78220636 369.11836476 639.93629734 368.96044159 630.08648491 C368.73227963 615.84649782 368.65990423 601.6090171 368.62477782 587.36740042 C368.56358641 564.25946747 368.37774858 541.15449695 368.11230469 518.0480957 C367.85484559 495.61074178 367.6566538 473.17413229 367.53808594 450.7355957 C367.5344032 450.04309565 367.53072047 449.35059559 367.52692614 448.63711069 C367.49000532 441.68228874 367.45428287 434.72746105 367.41943808 427.7726284 C367.12743737 369.51322259 366.63367087 311.2566606 366 253 C362.26560989 253 360.87015297 254.08962975 357.70703125 256.05078125 Z " fill="#D7CDEC" transform="translate(539,58)"/>
<path d="M0 0 C1.72933333 0.9415885 3.45845906 1.88355828 5.1875 2.82568359 C6.63189453 3.61245987 6.63189453 3.61245987 8.10546875 4.41513062 C20.42389751 11.1599535 32.56105057 18.16811468 44.34375 25.81494141 C49.12044521 28.89629782 53.99968566 31.66849384 59.00488281 34.36132812 C64.68084058 37.46672661 70.23844143 40.77894766 75.8125 44.0625 C77.10434362 44.82189165 78.39625551 45.58116718 79.68823242 46.34033203 C83.4603205 48.55768009 87.23036102 50.77849167 91 53 C91.9796875 53.5770166 92.959375 54.1540332 93.96875 54.74853516 C99.28113942 57.8786367 104.58887046 61.01652724 109.89355469 64.15966797 C112.15684122 65.5004927 114.42050681 66.84066437 116.68457031 68.18017578 C124.857611 73.01633925 133.02396187 77.86355129 141.18164062 82.72558594 C143.60830893 84.17186073 146.03656288 85.61538944 148.46679688 87.05566406 C164.74699687 96.71865543 179.31646235 106.89050344 193 120 C193.51481934 120.48758789 194.02963867 120.97517578 194.56005859 121.47753906 C201.5647956 128.13735406 207.62658021 134.91802714 213 143 C213.71671875 144.05703125 214.4334375 145.1140625 215.171875 146.203125 C227.43965237 164.56624657 235.64236499 183.60021944 240.875 205.0625 C241.07834961 205.89426758 241.28169922 206.72603516 241.49121094 207.58300781 C247.41084857 233.3442038 245.8891898 263.59235933 233 287 C225.65012962 298.72923887 215.23544951 306.79755519 201.76171875 310.11328125 C196.92683682 311.13072781 192.24241668 311.34624014 187.3125 311.3125 C186.43819336 311.30686035 185.56388672 311.3012207 184.66308594 311.29541016 C154.9322094 310.7440296 127.80959415 292.97600745 103.57929993 277.33267212 C100.13482968 275.14766826 96.70605238 273.40485408 92.94506836 271.81713867 C80.30324136 266.16497975 80.30324136 266.16497975 78.02539062 260.63311768 C76.64171747 253.87564776 77.26421365 247.13422755 77.8125 240.3125 C77.90793508 238.2432276 77.99460529 236.17353133 78.07226562 234.10351562 C78.28052832 229.05845172 78.60724639 224.03392455 79 219 C83.30479722 220.66132404 87.17505739 222.757525 91.125 225.125 C91.84292725 225.55095459 92.56085449 225.97690918 93.30053711 226.41577148 C95.86907785 227.940419 98.43451969 229.47020862 101 231 C137.82850936 255.83179515 137.82850936 255.83179515 180 263 C186.93988406 261.09259628 192.214965 257.11336883 196 251 C197.65279504 247.7508193 198.87804279 244.46560115 200 241 C200.30035156 240.09378906 200.60070312 239.18757812 200.91015625 238.25390625 C204.48057893 226.01482943 203.69863124 213.34623791 201 201 C200.79375 200.01515625 200.5875 199.0303125 200.375 198.015625 C194.73433844 173.27363227 178.68410192 151.49551239 157.31640625 138.00390625 C151.84165929 134.61527853 146.30909836 131.32582813 140.7678833 128.04736328 C138.28035474 126.57365397 135.79678911 125.09332345 133.31303406 123.61326599 C126.53803296 119.57624237 119.75556698 115.55193671 112.96891785 111.53453064 C108.576131 108.93410751 104.1856171 106.3298992 99.796875 103.72265625 C88.05281933 96.7487891 76.2916728 89.80682941 64.4765625 82.95385742 C56.60171034 78.37886901 48.81261596 73.68756958 41 69 C40.67 166.02 40.34 263.04 40 363 C36.2336125 361.493445 33.1097999 360.0115497 29.6484375 357.98828125 C28.63136719 357.39466797 27.61429688 356.80105469 26.56640625 356.18945312 C25.51324219 355.57005859 24.46007812 354.95066406 23.375 354.3125 C22.34503906 353.71244141 21.31507813 353.11238281 20.25390625 352.49414062 C17.15690833 350.68074121 14.06759407 348.8628961 11 347 C10.11259807 346.58820006 9.22519615 346.17640012 8.31090325 345.75212139 C0.62623645 341.77571286 0.62623645 341.77571286 -1.01442659 337.12356198 C-1.39153553 333.45944724 -1.41339342 329.93329577 -1.32279968 326.25050354 C-1.32759987 324.84200621 -1.33723755 323.43351851 -1.35128051 322.02508301 C-1.37584005 318.16309861 -1.33194835 314.30447959 -1.27672184 310.44292414 C-1.22916927 306.2760037 -1.24529705 302.10926942 -1.25364685 297.94215393 C-1.2594119 290.72540448 -1.2249332 283.50974987 -1.16303062 276.29327583 C-1.07359017 265.85969493 -1.04498076 255.42664283 -1.03116272 244.99272012 C-1.00709413 228.06426402 -0.93390804 211.13639132 -0.82983398 194.20825195 C-0.72884773 177.76524777 -0.65099373 161.32240212 -0.60424805 144.87915039 C-0.60135809 143.86541096 -0.59846813 142.85167153 -0.5954906 141.80721272 C-0.58113507 136.72152393 -0.56723431 131.63583402 -0.55355966 126.55014336 C-0.43954558 84.36635641 -0.24581895 42.1832116 0 0 Z " fill="#D9CFED" transform="translate(215,403)"/>
<path d="M0 0 C3.26605571 1.03096393 5.7552085 2.55424157 8.63769531 4.40600586 C9.79507005 5.1389237 10.95330088 5.8704911 12.11230469 6.60083008 C12.99970337 7.1626297 12.99970337 7.1626297 13.9050293 7.73577881 C18.41287341 10.55171257 23.03449992 13.18293278 27.62719727 15.85717773 C38.53587531 22.21111799 49.38996286 28.64920616 60.20214844 35.16625977 C69.5883404 40.81324922 79.03695037 46.35116783 88.50292969 51.86303711 C89.64052734 52.5269043 90.778125 53.19077148 91.95019531 53.87475586 C93.05943359 54.51912598 94.16867187 55.16349609 95.31152344 55.82739258 C97.6791478 57.24529385 99.98931167 58.68438227 102.29199219 60.19946289 C102.87946228 60.58034561 103.46693237 60.96122833 104.07220459 61.35365295 C105.70074189 62.41554483 107.31756341 63.49534163 108.93359375 64.57617188 C111.52396498 66.14084812 111.52396498 66.14084812 113.734375 65.23803711 C114.37793945 64.77913086 115.02150391 64.32022461 115.68457031 63.84741211 C116.47541016 63.4071167 117.26625 62.96682129 118.08105469 62.51318359 C132.1219343 54.4722128 146.04066931 46.26574146 159.85058594 37.83544922 C166.55788788 33.74135091 173.28900812 29.69858349 180.0793457 25.74389648 C184.62101321 23.08754453 189.12702092 20.37475348 193.62207031 17.64038086 C194.24150513 17.26358185 194.86093994 16.88678284 195.49914551 16.49856567 C198.60259691 14.60952786 201.70415316 12.7174406 204.80371094 10.82202148 C208.08816444 8.81517905 211.38622586 6.83134325 214.68457031 4.84741211 C215.565 4.30036621 216.44542969 3.75332031 217.35253906 3.18969727 C218.52236328 2.48852783 218.52236328 2.48852783 219.71582031 1.77319336 C220.37130859 1.37140869 221.02679687 0.96962402 221.70214844 0.55566406 C224.38454005 -0.40266329 225.98451536 0.03463637 228.68457031 0.84741211 C231.07516735 2.22584993 233.33927943 3.62412707 235.62207031 5.15991211 C236.51442383 5.74675781 236.51442383 5.74675781 237.42480469 6.34545898 C239.18367286 7.50458194 240.93486673 8.67451214 242.68457031 9.84741211 C243.83155391 10.61196283 244.97867891 11.3763015 246.12597656 12.14038086 C246.9703125 12.70370117 247.81464844 13.26702148 248.68457031 13.84741211 C244.90027117 17.03088651 240.91266376 19.62577883 236.65332031 22.11303711 C235.98095337 22.51012878 235.30858643 22.90722046 234.61584473 23.31634521 C232.47421569 24.5803559 230.32957712 25.83914357 228.18457031 27.09741211 C225.38142828 28.74666066 222.57958176 30.39809666 219.77832031 32.05053711 C219.09266495 32.45467331 218.40700958 32.85880951 217.70057678 33.27519226 C212.23642938 36.50325455 206.82486453 39.81023056 201.42822266 43.1496582 C190.23035241 50.07882618 178.85257316 56.71982416 167.50878906 63.40600586 C163.48250695 65.78072552 159.4656975 68.17062667 155.45410156 70.57006836 C153.9421521 71.47160645 153.9421521 71.47160645 152.3996582 72.39135742 C150.45276106 73.55260262 148.50786587 74.71721211 146.56518555 75.88549805 C145.69192627 76.4053125 144.81866699 76.92512695 143.91894531 77.46069336 C143.14776367 77.92258057 142.37658203 78.38446777 141.58203125 78.86035156 C139.68457031 79.84741211 139.68457031 79.84741211 137.68457031 79.84741211 C137.68457031 80.50741211 137.68457031 81.16741211 137.68457031 81.84741211 C138.38098633 82.10393555 139.07740234 82.36045898 139.79492188 82.62475586 C143.0146298 83.98706553 145.90829488 85.63207499 148.91894531 87.40991211 C149.80475029 87.93099297 149.80475029 87.93099297 150.70845032 88.46260071 C152.61911556 89.58758646 154.52685797 90.71742752 156.43457031 91.84741211 C157.75786937 92.62792175 159.08135672 93.40811226 160.4050293 94.18798828 C163.00492584 95.72036729 165.60376734 97.25450977 168.20166016 98.7902832 C171.72093652 100.87015173 175.24700228 102.93828731 178.7746582 105.00390625 C194.8280033 114.41256933 210.72810083 124.07749341 226.62817383 133.74194336 C234.96250895 138.80701917 243.31036733 143.84852564 251.68457031 148.84741211 C247.3456336 152.58274674 242.64934741 155.35916529 237.68457031 158.15991211 C236.89050781 158.62719727 236.09644531 159.09448242 235.27832031 159.57592773 C234.50488281 160.01227539 233.73144531 160.44862305 232.93457031 160.89819336 C232.23847656 161.2969165 231.54238281 161.69563965 230.82519531 162.10644531 C227.98505158 163.08954707 226.54247367 162.75209727 223.68457031 161.84741211 C221.69779374 160.84575212 219.75111814 159.76286961 217.83691406 158.62866211 C217.27686172 158.29922607 216.71680939 157.96979004 216.13978577 157.63037109 C214.29622978 156.54317127 212.45915886 155.44549918 210.62207031 154.34741211 C209.32091393 153.57676379 208.01947687 152.80658918 206.71777344 152.03686523 C197.42313152 146.52899254 188.18603961 140.92611352 178.9642334 135.29736328 C167.43315724 128.25915781 155.78740464 121.425637 144.12207031 114.61303711 C139.02256975 111.63438452 133.93603979 108.63605768 128.87207031 105.59741211 C127.76347656 104.93483398 126.65488281 104.27225586 125.51269531 103.58959961 C122.99202201 102.03680915 120.5633944 100.3951712 118.12207031 98.72241211 C114.07949817 96.51737276 113.02399022 96.7054595 108.68457031 97.84741211 C105.96082078 99.26854079 105.96082078 99.26854079 103.37207031 101.09741211 C99.44262637 103.75228306 95.44933992 106.10925534 91.29711914 108.38793945 C86.62507819 110.99792551 82.0380475 113.75281887 77.43978882 116.49008179 C74.43563371 118.2783676 71.42901139 120.06249915 68.42285156 121.84741211 C67.83272781 122.19797165 67.24260406 122.54853119 66.63459778 122.90971375 C62.05414223 125.63018552 57.46628268 128.3377529 52.87207031 131.03491211 C47.54011174 134.16552505 42.21452797 137.30661402 36.89453125 140.45751953 C35.05264872 141.54698104 33.20955595 142.63439917 31.36523438 143.71972656 C26.26377659 146.72191582 21.18269121 149.75336846 16.12207031 152.82397461 C13.95550561 154.12362376 11.78884128 155.42310686 9.62207031 156.72241211 C8.09634399 157.66068848 8.09634399 157.66068848 6.53979492 158.61791992 C5.58596924 159.18607422 4.63214355 159.75422852 3.64941406 160.33959961 C2.81015381 160.84861816 1.97089355 161.35763672 1.10620117 161.88208008 C-1.90973317 163.08431865 -3.25519605 162.85680384 -6.31542969 161.84741211 C-8.71899414 160.6640625 -8.71899414 160.6640625 -11.17871094 159.19506836 C-12.06494141 158.6659082 -12.95117188 158.13674805 -13.86425781 157.59155273 C-14.77626953 157.03661133 -15.68828125 156.48166992 -16.62792969 155.90991211 C-17.55927734 155.35883789 -18.490625 154.80776367 -19.45019531 154.23999023 C-20.32998047 153.70954102 -21.20976562 153.1790918 -22.11621094 152.63256836 C-22.92227783 152.14667236 -23.72834473 151.66077637 -24.55883789 151.16015625 C-25.13851318 150.72695068 -25.71818848 150.29374512 -26.31542969 149.84741211 C-26.31542969 149.18741211 -26.31542969 148.52741211 -26.31542969 147.84741211 C-24.45262385 146.57905406 -22.52170357 145.4105401 -20.56933594 144.28491211 C-19.97158859 143.93743423 -19.37384125 143.58995636 -18.75798035 143.23194885 C-16.80187108 142.09686402 -14.83997051 140.97220737 -12.87792969 139.84741211 C-11.53341704 139.06943986 -10.18934196 138.29071091 -8.84570312 137.51123047 C-6.1964069 135.97526585 -3.54516868 134.44275126 -0.89208984 132.91333008 C3.39872403 130.43798497 7.66946742 127.9292524 11.93457031 125.40991211 C13.26127703 124.6284648 14.58809725 123.84721014 15.91503906 123.06616211 C16.85742432 122.5112207 16.85742432 122.5112207 17.81884766 121.94506836 C19.66510092 120.85886649 21.51254239 119.77471467 23.36035156 118.69116211 C51.13663529 102.42882434 51.13663529 102.42882434 78.68457031 85.78491211 C79.32402588 85.39819336 79.96348145 85.01147461 80.62231445 84.61303711 C82.01281649 83.74706681 83.35647433 82.80634983 84.68457031 81.84741211 C84.68457031 81.18741211 84.68457031 80.52741211 84.68457031 79.84741211 C83.91491943 79.40985596 83.14526855 78.9722998 82.35229492 78.52148438 C55.24954132 63.10280384 55.24954132 63.10280384 43.51220703 55.95776367 C39.93189111 53.78259979 36.33894823 51.62841041 32.74707031 49.47241211 C31.93665283 48.98571045 31.12623535 48.49900879 30.29125977 47.99755859 C20.66958294 42.22670882 11.0178481 36.50636119 1.36645508 30.78540039 C-7.54494768 25.50160372 -16.436769 20.18604334 -25.31542969 14.84741211 C-22.87826902 12.28102085 -20.63863158 10.25179488 -17.53027344 8.55834961 C-16.83482422 8.17420898 -16.139375 7.79006836 -15.42285156 7.39428711 C-14.70677734 7.00756836 -13.99070312 6.62084961 -13.25292969 6.22241211 C-11.82401834 5.43951708 -10.39561312 4.65569742 -8.96777344 3.87084961 C-8.33863037 3.52973145 -7.7094873 3.18861328 -7.0612793 2.8371582 C-1.84252808 -0.12142346 -1.84252808 -0.12142346 0 0 Z " fill="#D8CEEC" transform="translate(423.3154296875,211.152587890625)"/>
<path d="M0 0 C0.29751535 43.68715742 0.52660459 87.37420768 0.66384928 131.06217834 C0.68010859 136.21918826 0.69693477 141.37619618 0.71411133 146.53320312 C0.71752136 147.55987612 0.7209314 148.58654912 0.72444477 149.64433342 C0.78102184 166.27114509 0.8835258 182.89737281 1.00298635 199.52383798 C1.12453059 216.58250737 1.19675837 233.64087082 1.22315043 250.69995546 C1.24099426 261.22785643 1.29735807 271.754107 1.40291407 282.28149992 C1.47160166 289.4993159 1.49240924 296.71627803 1.47551791 303.93439716 C1.46718453 308.1004684 1.48000175 312.26365558 1.54967117 316.42921448 C1.61303264 320.24550205 1.61609785 324.05697435 1.57168563 327.87348562 C1.56360524 329.9038833 1.61962129 331.93422536 1.67805701 333.96379805 C1.59769082 337.73382412 1.40403545 340.49506896 0 344 C-3.99691923 347.56850247 -8.14249531 349.72025864 -13 352 C-14.25909778 352.74043661 -15.50917315 353.49707891 -16.73901367 354.28515625 C-19.88577003 356.19466582 -23.03608641 358.09818712 -26.1875 360 C-27.30447266 360.67933594 -28.42144531 361.35867188 -29.57226562 362.05859375 C-30.63509766 362.69925781 -31.69792969 363.33992188 -32.79296875 364 C-34.22419067 364.86625 -34.22419067 364.86625 -35.68432617 365.75 C-38 367 -38 367 -40 367 C-40.73341277 323.5012844 -41.29678588 280.00322619 -41.63409054 236.49954028 C-41.67411026 231.3566984 -41.71552885 226.21386867 -41.7578125 221.07104492 C-41.76620643 220.04725734 -41.77460037 219.02346976 -41.78324866 217.96865831 C-41.92227084 201.41882058 -42.17443529 184.87256152 -42.46888947 168.32484277 C-42.76879099 151.32845828 -42.94601101 134.33393943 -43.01083183 117.33501798 C-43.05462177 106.85412914 -43.19250868 96.38335261 -43.45332694 85.90558121 C-43.62331478 78.70732105 -43.67343709 71.51423649 -43.63204408 64.31411799 C-43.61164021 60.16318448 -43.64136308 56.02979633 -43.8145752 51.88204575 C-44.75231179 28.28810313 -44.75231179 28.28810313 -38.52833843 21.36241844 C-30.80338164 14.35412578 -21.16533708 9.78137765 -11.67452812 5.66289502 C-9.04463424 4.51745135 -6.57159419 3.22953766 -4.09025764 1.7899453 C-1 0 -1 0 0 0 Z " fill="#DBD1EF" transform="translate(651,526)"/>
<path d="M0 0 C0.40819283 6.36574861 0.68677432 12.72810578 0.87890625 19.10400391 C0.95902006 21.26804579 1.06796809 23.43123056 1.20703125 25.59228516 C2.29945004 43.01475829 2.29945004 43.01475829 -1.47000122 47.90841675 C-5.22086289 51.17628442 -9.47872522 53.22723001 -14.03643799 55.14672852 C-16.58946302 56.25615284 -18.85856926 57.68338571 -21.18359375 59.20703125 C-22.60108167 60.0763054 -24.01902515 60.94483725 -25.4375 61.8125 C-26.14841797 62.25013672 -26.85933594 62.68777344 -27.59179688 63.13867188 C-31.94156995 65.80059103 -36.34706006 68.3279444 -40.81420898 70.78735352 C-44.18091166 72.65515338 -47.4976071 74.60462111 -50.8125 76.5625 C-51.53695312 76.98958252 -52.26140625 77.41666504 -53.0078125 77.85668945 C-62.0348931 83.18816476 -71.01611913 88.59618603 -80 94 C-95.16280151 103.11980869 -110.35151173 112.19405391 -125.57324219 121.21508789 C-140.26160515 129.86554811 -140.26160515 129.86554811 -154.80322266 138.75732422 C-157 140 -157 140 -159 140 C-163.89570176 102.19717982 -163.89570176 102.19717982 -157.78393555 91.96386719 C-151.17068494 84.18357235 -140.59777795 80.57333629 -131.37011719 76.87158203 C-125.20577792 74.33590238 -119.70367104 70.81192608 -114.1072998 67.22705078 C-111.26267703 65.41736475 -108.37640248 63.67949861 -105.4921875 61.93359375 C-104.40131836 61.27085449 -103.31044922 60.60811523 -102.18652344 59.92529297 C-96.41535805 56.43836298 -90.60646957 53.01598981 -84.7956543 49.59570312 C-76.40218745 44.65500508 -68.0507303 39.6460916 -59.70458984 34.62597656 C-54.63858326 31.58033621 -49.5689771 28.54069283 -44.5 25.5 C-42.38410029 24.23049257 -40.26821474 22.96096155 -38.15234375 21.69140625 C-16.47265625 8.68359375 -16.47265625 8.68359375 -14.28955078 7.37841797 C-12.61583739 6.37076327 -10.94838333 5.35269127 -9.28466797 4.32861328 C-7.93526123 3.50272705 -7.93526123 3.50272705 -6.55859375 2.66015625 C-5.73544678 2.15234619 -4.9122998 1.64453613 -4.06420898 1.12133789 C-2 0 -2 0 0 0 Z " fill="#D8CFEE" transform="translate(849,705)"/>
<path d="M0 0 C5 1 5 1 14 6 C14 89.16 14 172.32 14 258 C13.34 258 12.68 258 12 258 C12.00498599 256.71801948 12.00997198 255.43603895 12.01510906 254.11521053 C12.13102266 223.6806774 12.19019541 193.24662174 12.17953635 162.81188973 C12.17827385 159.06559255 12.17748997 155.31929541 12.17700195 151.57299805 C12.17689675 150.82718053 12.17679155 150.08136301 12.17668317 149.31294496 C12.17612126 137.2380205 12.21432888 125.16351435 12.26687535 113.08871757 C12.31993336 100.69797086 12.33130264 88.30769108 12.3040064 75.91685826 C12.28847645 68.27119279 12.30542731 60.62701794 12.36398569 52.98155505 C12.40541137 47.11807092 12.3888217 41.25564957 12.35058594 35.39211464 C12.34398825 32.98748247 12.35622732 30.58271414 12.38863564 28.17829132 C13.14829811 15.80706942 13.14829811 15.80706942 8.46157265 5.02336311 C5.6709162 3.24116688 3.12572356 2.05222451 0 1 C0 0.67 0 0.34 0 0 Z " fill="#E2DCFC" transform="translate(909,282)"/>
<path d="M0 0 C0 0.99 0 1.98 0 3 C-1.46875 4.2109375 -1.46875 4.2109375 -3.5 5.375 C-7.1768714 7.51712046 -10.71546728 9.79303462 -14.23828125 12.1796875 C-16 13 -16 13 -19 12 C-16.1310553 9.77375192 -13.18696078 7.84867941 -10.0625 6 C-9.22847656 5.505 -8.39445312 5.01 -7.53515625 4.5 C-6.69855469 4.005 -5.86195313 3.51 -5 3 C-3.33272153 2.00102039 -1.6658773 1.00131444 0 0 Z " fill="#EBE7FA" transform="translate(322,184)"/>
<path d="M0 0 C5.45987752 0.84371109 9.25820402 3.2398501 14 6 C14 9.96 14 13.92 14 18 C13.67 18 13.34 18 13 18 C13 14.7 13 11.4 13 8 C12.34 7.773125 11.68 7.54625 11 7.3125 C7.09257775 5.60300277 3.47578462 3.47531064 0 1 C0 0.67 0 0.34 0 0 Z " fill="#F2EDFD" transform="translate(909,282)"/>
<path d="M0 0 C0.99 0.33 1.98 0.66 3 1 C2.34 1 1.68 1 1 1 C1 1.99 1 2.98 1 4 C-0.58199631 4.64910154 -2.16565724 5.29414694 -3.75 5.9375 C-4.63171875 6.29714844 -5.5134375 6.65679687 -6.421875 7.02734375 C-8.61186104 7.85356576 -10.71898271 8.49369943 -13 9 C-13 8.34 -13 7.68 -13 7 C-11.20856793 6.0204042 -9.41684696 5.0413367 -7.625 4.0625 C-6.62726563 3.51722656 -5.62953125 2.97195312 -4.6015625 2.41015625 C-3.07929654 1.5850241 -1.54871217 0.77435609 0 0 Z " fill="#F1EFFB" transform="translate(491,83)"/>
<path d="M0 0 C0.66 0.33 1.32 0.66 2 1 C0.68 2.32 -0.64 3.64 -2 5 C-1.34 6.65 -0.68 8.3 0 10 C-2.64 8.68 -5.28 7.36 -8 6 C-5.54080489 3.3651481 -3.42227589 1.25483449 0 0 Z " fill="#C1BDDD" transform="translate(406,220)"/>
<path d="M0 0 C4.97209562 1.76429199 9.43438061 4.3939166 14 7 C13.67 7.66 13.34 8.32 13 9 C8.99405848 8.3837013 6.27006119 6.29600041 3 4 C2.01 3.34 1.02 2.68 0 2 C0 1.34 0 0.68 0 0 Z " fill="#EDE7FD" transform="translate(871,258)"/>
<path d="M0 0 C0.99 0.33 1.98 0.66 3 1 C-3.75 5 -3.75 5 -6 5 C-6 5.66 -6 6.32 -6 7 C-7.98 7.33 -9.96 7.66 -12 8 C-8.19752197 4.773655 -4.44929561 2.22464781 0 0 Z " fill="#E1DAF8" transform="translate(406,134)"/>
<path d="M0 0 C3.7602985 0.58107632 6.53035032 1.65199496 9.8125 3.5625 C10.60269531 4.01753906 11.39289062 4.47257812 12.20703125 4.94140625 C12.79871094 5.29074219 13.39039063 5.64007813 14 6 C14 6.66 14 7.32 14 8 C10.45265111 7.33694413 7.81990835 5.86707876 4.75 4 C3.85796875 3.46375 2.9659375 2.9275 2.046875 2.375 C1.37140625 1.92125 0.6959375 1.4675 0 1 C0 0.67 0 0.34 0 0 Z " fill="#F0ECFC" transform="translate(564,75)"/>
<path d="M0 0 C4.75481646 0.57634139 7.97048212 2.55068521 12 5 C12 5.66 12 6.32 12 7 C7.0682659 6.55166054 3.6807076 4.13973905 0 1 C0 0.67 0 0.34 0 0 Z " fill="#E8E2FC" transform="translate(858,251)"/>
<path d="M0 0 C2.0625 0.4375 2.0625 0.4375 4 1 C2.42065361 1.98558449 0.83634827 2.96322541 -0.75 3.9375 C-2.07257813 4.75541016 -2.07257813 4.75541016 -3.421875 5.58984375 C-5.68399917 6.82715712 -7.48566325 7.53590513 -10 8 C-10 7.34 -10 6.68 -10 6 C-9.36191406 5.65066406 -8.72382813 5.30132812 -8.06640625 4.94140625 C-7.24011719 4.48636719 -6.41382813 4.03132812 -5.5625 3.5625 C-4.73878906 3.11003906 -3.91507813 2.65757812 -3.06640625 2.19140625 C-1.07691202 1.16337603 -1.07691202 1.16337603 0 0 Z " fill="#ECE5F6" transform="translate(248,228)"/>
<path d="M0 0 C0.66 0 1.32 0 2 0 C2 0.66 2 1.32 2 2 C3.423125 2.37125 3.423125 2.37125 4.875 2.75 C8 4 8 4 9.375 6.125 C9.58125 6.74375 9.7875 7.3625 10 8 C6.22272911 6.18690997 2.62730178 4.0926741 -1 2 C-0.67 1.34 -0.34 0.68 0 0 Z " fill="#E2DEF9" transform="translate(472,979)"/>
<path d="M0 0 C-0.33 0.99 -0.66 1.98 -1 3 C-4.5625 4.1875 -4.5625 4.1875 -8 5 C-8 5.66 -8 6.32 -8 7 C-8.66 7 -9.32 7 -10 7 C-10 6.01 -10 5.02 -10 4 C-3.375 0 -3.375 0 0 0 Z " fill="#E5E0FA" transform="translate(362,162)"/>
<path d="M0 0 C4.19360449 0.67097672 7.40334352 2.8558394 11 5 C11 5.66 11 6.32 11 7 C6.96678237 5.78065514 3.45730521 4.44045073 0 2 C0 1.34 0 0.68 0 0 Z " fill="#EFECFB" transform="translate(790,210)"/>
<path d="M0 0 C0.33 0.66 0.66 1.32 1 2 C-0.57347176 3.035969 -2.15921546 4.05331732 -3.75 5.0625 C-4.63171875 5.63097656 -5.5134375 6.19945313 -6.421875 6.78515625 C-9 8 -9 8 -11.328125 7.68359375 C-12.15570313 7.34521484 -12.15570313 7.34521484 -13 7 C-11.20856793 6.0204042 -9.41684696 5.0413367 -7.625 4.0625 C-6.62726563 3.51722656 -5.62953125 2.97195312 -4.6015625 2.41015625 C-3.07929654 1.5850241 -1.54871217 0.77435609 0 0 Z " fill="#F2E9FB" transform="translate(506,74)"/>
<path d="M0 0 C4.40114397 0.50298788 6.71195019 2.08772731 10 5 C9.67 5.66 9.34 6.32 9 7 C6.03 5.35 3.06 3.7 0 2 C0 1.34 0 0.68 0 0 Z " fill="#E0DBF9" transform="translate(151,787)"/>
<path d="M0 0 C4.5076467 0.53031138 7.41954788 2.25221116 11 5 C11 5.66 11 6.32 11 7 C10.34 7 9.68 7 9 7 C9 6.34 9 5.68 9 5 C8.443125 4.896875 7.88625 4.79375 7.3125 4.6875 C4.54289253 3.86410318 2.39747583 2.59831722 0 1 C0 0.67 0 0.34 0 0 Z " fill="#EEE8FA" transform="translate(603,98)"/>
<path d="M0 0 C0 0.99 0 1.98 0 3 C-0.721875 2.79375 -1.44375 2.5875 -2.1875 2.375 C-5.44641585 1.94047789 -7.08304504 2.58319331 -10 4 C-10 3.34 -10 2.68 -10 2 C-6.3558226 -0.4294516 -4.28758728 -0.16179575 0 0 Z " fill="#EFE9F9" transform="translate(539,58)"/>
<path d="M0 0 C3.95820859 0.56545837 6.6659053 1.80902348 10 4 C9.67 4.66 9.34 5.32 9 6 C7.68397477 5.38245741 6.37226444 4.75571258 5.0625 4.125 C4.33160156 3.77695313 3.60070312 3.42890625 2.84765625 3.0703125 C1 2 1 2 0 0 Z " fill="#EFE8FA" transform="translate(744,183)"/>
<path d="M0 0 C-3.19990508 2.74277578 -6.00499382 4.6302836 -10 6 C-8.20404732 1.26521567 -5.07984355 -1.69328118 0 0 Z " fill="#EAE3FA" transform="translate(346,172)"/>
<path d="M0 0 C5.35048061 0.37328935 7.50912907 1.9957657 11 6 C6.49197399 4.74194623 3.5087188 3.09592835 0 0 Z " fill="#EBE7F7" transform="translate(705,160)"/>
<path d="M0 0 C-1.45255699 3.82946843 -3.42895561 5.12050295 -7 7 C-7 5.68 -7 4.36 -7 3 C-2.92857143 0 -2.92857143 0 0 0 Z " fill="#D3D0FA" transform="translate(425,123)"/>
<path d="M0 0 C3.45925163 1.2491742 6.14693203 2.67527795 9 5 C8.67 5.66 8.34 6.32 8 7 C6.66144944 6.21718695 5.32926356 5.42348123 4 4.625 C3.2575 4.18414063 2.515 3.74328125 1.75 3.2890625 C1.1725 2.86367188 0.595 2.43828125 0 2 C0 1.34 0 0.68 0 0 Z " fill="#E2DCFA" transform="translate(413,944)"/>
<path d="M0 0 C4.35535069 1.16142685 6.64619703 2.07699505 9 6 C5.59687262 4.94124926 2.98646769 3.99097846 0 2 C0 1.34 0 0.68 0 0 Z " fill="#E7E1FB" transform="translate(802,217)"/>
<path d="M0 0 C0 0.66 0 1.32 0 2 C-2.97 3.65 -5.94 5.3 -9 7 C-9 6.01 -9 5.02 -9 4 C-2.25 0 -2.25 0 0 0 Z " fill="#E7E3FB" transform="translate(436,117)"/>
<path d="M0 0 C3.66881155 0.70554068 6.70450534 2.27735506 10 4 C9.67 4.99 9.34 5.98 9 7 C2.57142857 2.85714286 2.57142857 2.85714286 0 0 Z " fill="#F0E6FA" transform="translate(620,108)"/>
<path d="M0 0 C0 0.99 0 1.98 0 3 C-2 4.6875 -2 4.6875 -4 6 C-4.99 5.34 -5.98 4.68 -7 4 C-4.69 2.68 -2.38 1.36 0 0 Z " fill="#1F1D43" transform="translate(259,243)"/>
<path d="M0 0 C0.99 0.33 1.98 0.66 3 1 C0.47043472 4.0916909 -2.22454612 4.90931332 -6 6 C-2.25 1.125 -2.25 1.125 0 0 Z " fill="#EDE6FA" transform="translate(300,197)"/>
<path d="M0 0 C3.77545388 1.09068668 6.47043472 1.9083091 9 5 C8.67 5.66 8.34 6.32 8 7 C6.66144944 6.21718695 5.32926356 5.42348123 4 4.625 C3.2575 4.18414062 2.515 3.74328125 1.75 3.2890625 C1.1725 2.86367187 0.595 2.43828125 0 2 C0 1.34 0 0.68 0 0 Z " fill="#ECE7FA" transform="translate(757,190)"/>
<path d="M0 0 C-0.66 0 -1.32 0 -2 0 C-2 0.99 -2 1.98 -2 3 C-3.98 3.66 -5.96 4.32 -8 5 C-7.75 3.125 -7.75 3.125 -7 1 C-4.09342573 -1.03460199 -3.47133392 -1.15711131 0 0 Z " fill="#E7E1F9" transform="translate(494,84)"/>
<path d="M0 0 C2.64 1.65 5.28 3.3 8 5 C7.67 5.66 7.34 6.32 7 7 C1.125 3.375 1.125 3.375 0 0 Z " fill="#EFEAFB" transform="translate(817,225)"/>
<path d="M0 0 C3.40312738 1.05875074 6.01353231 2.00902154 9 4 C9 4.66 9 5.32 9 6 C5.9168649 4.80100302 2.93720508 3.52299523 0 2 C0 1.34 0 0.68 0 0 Z " fill="#EDE7FA" transform="translate(732,175)"/>
<path d="M0 0 C0.66 0.66 1.32 1.32 2 2 C-1 4 -1 4 -3.1875 3.625 C-3.785625 3.41875 -4.38375 3.2125 -5 3 C-5 2.34 -5 1.68 -5 1 C-2.625 0.375 -2.625 0.375 0 0 Z " fill="#C5C1E6" transform="translate(746,890)"/>
<path d="M0 0 C3.96 1.98 3.96 1.98 8 4 C8 4.66 8 5.32 8 6 C5.0280615 4.87548273 2.66559313 3.77706209 0 2 C0 1.34 0 0.68 0 0 Z " fill="#E4E0FA" transform="translate(255,849)"/>
<path d="M0 0 C0.66 0.33 1.32 0.66 2 1 C-0.35277269 3.72426311 -2.62496331 4.8141763 -6 6 C-6 5.01 -6 4.02 -6 3 C-4.03533587 1.93224776 -2.03144641 0.93446535 0 0 Z " fill="#F3EEFC" transform="translate(192,262)"/>
<path d="M0 0 C-2.6855594 2.6855594 -5.37621328 3.06049974 -9 4 C-9 3.34 -9 2.68 -9 2 C-5.5647952 -0.29013653 -4.014669 -0.17842973 0 0 Z " fill="#E4DEF2" transform="translate(204,258)"/>
<path d="M0 0 C3.34373475 0.55728913 6.03312999 1.35173889 9 3 C9 3.66 9 4.32 9 5 C5.12867972 4.42647107 2.91827204 2.51295648 0 0 Z " fill="#F1EBFC" transform="translate(689,150)"/>
<path d="M0 0 C3.34373475 0.55728913 6.03312999 1.35173889 9 3 C9 3.66 9 4.32 9 5 C5.12867972 4.42647107 2.91827204 2.51295648 0 0 Z " fill="#EDE5FA" transform="translate(554,69)"/>
</svg>
